<?xml version="1.0" standalone="no"?>
<!DOCTYPE svg PUBLIC "-//W3C//DTD SVG 20010904//EN"
 "http://www.w3.org/TR/2001/REC-SVG-20010904/DTD/svg10.dtd">
<svg version="1.0" xmlns="http://www.w3.org/2000/svg"
 width="456.000000pt" height="1617.000000pt" viewBox="0 0 456.000000 1617.000000"
 preserveAspectRatio="xMidYMid meet">

<g transform="translate(0.000000,1617.000000) scale(0.100000,-0.100000)"
fill="#000000" stroke="none">
<path d="M156 16044 c-10 -26 -7 -61 7 -73 7 -6 28 -9 45 -8 27 2 32 6 32 29
0 22 -4 25 -21 21 -15 -4 -17 -8 -8 -14 11 -6 10 -9 -3 -14 -24 -9 -38 2 -38
30 0 25 27 42 44 25 15 -15 26 -12 20 5 -8 21 -70 20 -78 -1z"/>
<path d="M630 16010 c0 -27 5 -50 10 -50 6 0 10 23 10 50 0 28 -4 50 -10 50
-5 0 -10 -22 -10 -50z"/>
<path d="M260 16020 c-14 -26 3 -60 30 -60 31 0 33 18 3 23 l-28 4 28 2 c44 2
32 51 -13 51 -5 0 -14 -9 -20 -20z"/>
<path d="M340 15998 c0 -21 5 -38 10 -38 6 0 10 14 10 30 0 17 5 30 10 30 6 0
10 -13 10 -30 0 -16 5 -30 11 -30 6 0 9 16 7 38 -3 33 -6 37 -30 37 -26 1 -28
-2 -28 -37z"/>
<path d="M433 16033 c-18 -7 -16 -62 2 -69 8 -4 23 -3 33 1 15 7 14 9 -8 15
-22 7 -22 8 -4 9 29 1 35 10 23 32 -10 19 -22 22 -46 12z"/>
<path d="M500 15998 c0 -21 5 -38 10 -38 6 0 10 11 10 24 0 14 5 28 10 31 16
10 11 21 -10 21 -16 0 -20 -7 -20 -38z"/>
<path d="M559 16024 c-12 -15 -11 -16 11 -10 25 6 25 6 2 -6 -32 -16 -24 -42
14 -46 31 -3 31 -3 25 35 -7 42 -30 54 -52 27z m38 -40 c-3 -3 -12 -4 -19 -1
-8 3 -5 6 6 6 11 1 17 -2 13 -5z"/>
<path d="M3790 15520 l0 -300 300 0 300 0 0 300 0 300 -300 0 -300 0 0 -300z
m590 0 l0 -290 -290 0 -290 0 0 290 0 290 290 0 290 0 0 -290z"/>
<path d="M3314 15710 c-169 -24 -276 -150 -220 -259 92 -176 470 -176 562 0
73 142 -121 289 -342 259z m204 -32 c92 -34 142 -92 142 -163 0 -107 -121
-187 -285 -187 -164 0 -285 80 -285 187 0 147 232 235 428 163z"/>
<path d="M190 15520 l0 -150 300 0 300 0 0 150 0 150 -300 0 -300 0 0 -150z
m590 0 l0 -140 -290 0 -290 0 0 140 0 140 290 0 290 0 0 -140z"/>
<path d="M926 15654 c-23 -23 -23 -245 0 -268 13 -14 53 -16 284 -16 231 0
271 2 284 16 13 12 16 40 16 134 0 94 -3 122 -16 134 -13 14 -53 16 -284 16
-231 0 -271 -2 -284 -16z m562 -6 c17 -17 17 -239 0 -256 -17 -17 -539 -17
-556 0 -17 17 -17 239 0 256 9 9 84 12 278 12 194 0 269 -3 278 -12z"/>
<path d="M2382 15635 c0 -16 2 -22 5 -12 2 9 2 23 0 30 -3 6 -5 -1 -5 -18z"/>
<path d="M2407 15647 c-3 -8 -1 -20 4 -28 6 -10 9 -7 9 14 0 29 -5 35 -13 14z"/>
<path d="M2525 15647 c-19 -15 -13 -37 11 -37 8 0 14 10 14 25 0 29 0 29 -25
12z m15 -17 c0 -5 -4 -10 -10 -10 -5 0 -10 5 -10 10 0 6 5 10 10 10 6 0 10 -4
10 -10z"/>
<path d="M2430 15630 c0 -13 6 -20 18 -19 10 0 12 3 5 6 -7 2 -13 9 -13 14 0
6 5 7 10 4 6 -3 10 -1 10 4 0 6 -7 11 -15 11 -8 0 -15 -9 -15 -20z"/>
<path d="M2478 15643 c6 -2 12 -9 12 -14 0 -6 -4 -7 -10 -4 -5 3 -10 1 -10 -4
0 -6 7 -11 15 -11 8 0 15 9 15 20 0 13 -6 20 -17 19 -11 0 -13 -3 -5 -6z"/>
<path d="M2562 15630 c0 -14 2 -19 5 -12 2 6 2 18 0 25 -3 6 -5 1 -5 -13z"/>
<path d="M2581 15628 c0 -22 1 -22 8 -3 l8 20 5 -20 c5 -18 6 -18 7 3 1 13 -5
22 -14 22 -9 0 -15 -9 -14 -22z"/>
<path d="M2627 15643 c-12 -11 -8 -22 13 -33 18 -9 20 -8 20 15 0 24 -18 34
-33 18z m23 -13 c0 -5 -4 -10 -10 -10 -5 0 -10 5 -10 10 0 6 5 10 10 10 6 0
10 -4 10 -10z"/>
<path d="M1780 15580 c0 -5 9 -10 20 -10 18 0 20 -7 20 -55 0 -30 5 -55 10
-55 6 0 10 25 10 55 0 48 2 55 20 55 11 0 20 5 20 10 0 6 -22 10 -50 10 -27 0
-50 -4 -50 -10z"/>
<path d="M2057 15568 c-7 -20 7 -101 18 -105 7 -2 10 15 8 44 -1 27 -2 54 -2
61 -1 6 -5 12 -10 12 -5 0 -11 -6 -14 -12z"/>
<path d="M1888 15549 c-21 -12 -24 -59 -6 -77 15 -15 55 -16 63 -1 11 16 -3
23 -19 10 -8 -7 -20 -10 -26 -6 -20 12 -10 25 20 25 22 0 30 5 30 18 0 20 -18
42 -34 42 -6 0 -19 -5 -28 -11z m42 -19 c0 -5 -9 -10 -21 -10 -11 0 -17 5 -14
10 3 6 13 10 21 10 8 0 14 -4 14 -10z"/>
<path d="M1970 15542 c0 -4 5 -13 11 -19 9 -9 8 -18 -5 -37 -18 -28 -7 -36 15
-10 12 14 14 14 26 -2 7 -10 16 -15 19 -11 4 4 1 14 -6 22 -10 12 -10 21 -2
40 12 26 4 33 -15 14 -8 -8 -13 -8 -17 0 -8 13 -26 15 -26 3z"/>
<path d="M441 15089 c-58 -11 -68 -22 -11 -12 55 9 73 9 130 0 26 -3 37 -3 25
2 -35 14 -99 19 -144 10z"/>
<path d="M1782 14947 l-152 -152 77 -75 78 -75 -72 75 -73 75 147 147 148 148
75 -73 75 -72 -75 78 c-41 42 -75 77 -75 77 0 0 -69 -69 -153 -153z"/>
<path d="M3870 14800 c0 -238 3 -300 13 -294 34 21 193 128 202 137 15 15 -10
0 -107 -65 -48 -32 -90 -58 -93 -58 -3 0 -5 126 -5 280 0 154 3 280 6 280 3 0
26 -14 52 -31 30 -19 37 -22 20 -7 -15 13 -41 32 -58 41 l-30 18 0 -301z"/>
<path d="M328 15041 c-43 -27 -71 -59 -97 -108 -21 -40 -5 -24 26 26 19 31 48
59 77 76 40 23 54 35 43 35 -2 0 -24 -13 -49 -29z"/>
<path d="M610 15067 c0 -3 21 -17 46 -32 29 -17 58 -45 77 -76 33 -54 46 -65
23 -20 -24 46 -61 84 -105 109 -22 13 -41 21 -41 19z"/>
<path d="M3990 15015 c0 -2 47 -36 105 -75 58 -39 105 -68 105 -65 0 2 -47 36
-105 75 -58 39 -105 68 -105 65z"/>
<path d="M3217 14993 c-3 -5 64 -7 149 -5 151 3 156 2 175 -20 l20 -23 -17 28
-16 27 -154 0 c-84 0 -155 -3 -157 -7z"/>
<path d="M3189 14953 c-13 -16 -12 -17 4 -4 9 7 17 15 17 17 0 8 -8 3 -21 -13z"/>
<path d="M910 14800 l0 -150 300 0 300 0 0 150 0 150 -300 0 -300 0 0 -150z
m60 0 l0 -140 -25 0 -25 0 0 140 0 140 25 0 25 0 0 -140z m470 0 l0 -140 -230
0 -230 0 0 140 0 140 230 0 230 0 0 -140z m60 0 l0 -140 -25 0 -25 0 0 140 0
140 25 0 25 0 0 -140z"/>
<path d="M2415 14808 c-32 -79 -59 -149 -62 -155 -4 -10 47 -13 235 -13 l240
0 57 143 c32 78 59 148 62 155 4 9 -47 12 -235 12 l-240 0 -57 -142z m466 -10
l-57 -143 -231 -3 -231 -2 45 112 c25 62 51 128 58 146 l14 32 230 0 229 0
-57 -142z"/>
<path d="M2147 14870 l73 -75 -143 -143 -142 -142 -75 73 -75 72 75 -77 c41
-43 75 -78 75 -78 0 0 67 66 148 148 l147 147 -77 75 -78 75 72 -75z"/>
<path d="M3590 14895 c17 -25 33 -45 36 -45 3 0 -9 20 -26 45 -17 25 -33 45
-36 45 -3 0 9 -20 26 -45z"/>
<path d="M3159 14913 c-13 -16 -12 -17 4 -4 9 7 17 15 17 17 0 8 -8 3 -21 -13z"/>
<path d="M204 14864 c-4 -22 -8 -52 -8 -69 0 -37 14 -109 20 -103 2 3 0 27 -5
54 -6 30 -6 68 0 98 5 27 7 51 5 54 -3 2 -8 -13 -12 -34z"/>
<path d="M777 14860 c3 -25 7 -47 9 -49 8 -9 2 55 -6 74 -6 13 -7 5 -3 -25z"/>
<path d="M3129 14873 c-13 -16 -12 -17 4 -4 9 7 17 15 17 17 0 8 -8 3 -21 -13z"/>
<path d="M4234 14848 c16 -13 38 -30 49 -39 20 -16 18 -18 -74 -79 -87 -58
-136 -95 -99 -75 20 12 193 126 203 135 4 4 -18 23 -50 44 -32 20 -45 26 -29
14z"/>
<path d="M3099 14833 c-13 -16 -12 -17 4 -4 16 13 21 21 13 21 -2 0 -10 -8
-17 -17z"/>
<path d="M3644 14819 c16 -25 14 -28 -52 -117 l-67 -91 -150 -1 -151 0 -69 91
c-39 50 -69 95 -67 101 1 5 -2 7 -8 3 -12 -7 -13 -6 79 -123 l63 -82 152 0
152 0 64 87 c86 114 83 107 59 134 l-20 24 15 -26z"/>
<path d="M781 14754 c0 -17 -14 -57 -29 -87 -16 -31 -23 -52 -16 -47 21 18 55
110 51 138 -4 25 -4 25 -6 -4z"/>
<path d="M234 14654 c26 -54 65 -92 128 -123 34 -17 75 -31 92 -30 27 1 25 2
-12 10 -23 4 -66 21 -94 36 -45 25 -65 45 -116 119 -7 11 -6 5 2 -12z"/>
<path d="M699 14583 c-13 -16 -12 -17 4 -4 16 13 21 21 13 21 -2 0 -10 -8 -17
-17z"/>
<path d="M633 14544 c-23 -14 -61 -29 -85 -33 -36 -7 -38 -9 -13 -10 31 -1
128 39 139 58 9 14 10 14 -41 -15z"/>
<path d="M405 14371 c-45 -12 -88 -36 -110 -62 l-20 -24 25 21 c56 49 90 59
195 59 84 0 107 -4 142 -23 70 -36 91 -85 56 -126 -17 -20 -17 -20 0 -7 16 13
17 4 17 -164 l0 -177 -32 -31 c-22 -20 -26 -26 -11 -18 50 26 53 41 53 257 0
228 -2 234 -83 276 -45 22 -177 34 -232 19z"/>
<path d="M2350 14080 l0 -300 300 0 300 0 0 300 0 300 -300 0 -300 0 0 -300z
m150 220 l0 -70 -70 0 -70 0 0 70 0 70 70 0 70 0 0 -70z m440 0 l0 -70 -215 0
-215 0 0 70 0 70 215 0 215 0 0 -70z m-440 -295 l0 -215 -70 0 -70 0 0 215 0
215 70 0 70 0 0 -215z m440 0 l0 -215 -215 0 -215 0 0 215 0 215 215 0 215 0
0 -215z"/>
<path d="M271 14080 c-1 -220 2 -235 52 -261 15 -8 11 -2 -10 18 l-33 31 0
177 c0 168 1 177 18 164 16 -13 16 -12 0 6 -9 11 -18 31 -21 45 -2 14 -5 -67
-6 -180z"/>
<path d="M1632 14103 l2 -178 3 173 3 172 290 0 290 0 0 -160 c0 -88 -3 -160
-8 -160 -4 0 -17 6 -28 14 -11 8 -38 17 -60 20 l-39 6 40 -13 c22 -7 55 -20
73 -30 l32 -18 0 176 0 175 -300 0 -300 0 2 -177z"/>
<path d="M3070 14127 l0 -154 28 -24 27 -24 -23 26 c-22 25 -22 32 -20 170 l3
144 240 3 240 2 45 -45 44 -45 -239 0 -239 0 -46 43 -45 42 43 -45 42 -46 0
-138 0 -139 -22 19 c-21 17 -21 16 1 -9 l24 -27 249 0 248 0 0 148 0 148 -53
52 -53 52 -247 0 -247 0 0 -153z m590 -97 l0 -140 -240 0 -240 0 0 140 0 140
240 0 240 0 0 -140z"/>
<path d="M3913 14273 c70 -2 184 -2 255 0 70 1 12 3 -128 3 -140 0 -198 -2
-127 -3z"/>
<path d="M1088 14210 c-16 -16 -37 -30 -46 -30 -9 0 -24 -5 -32 -10 -11 -7 -5
-8 20 -3 19 3 47 19 62 35 21 23 34 28 73 28 25 0 60 -7 78 -16 18 -10 58 -17
93 -18 51 -1 67 -5 88 -25 27 -26 32 -50 16 -80 -7 -14 -3 -24 16 -42 17 -16
23 -18 19 -7 -4 9 -13 19 -21 22 -11 4 -12 10 -4 25 17 33 12 56 -21 87 -26
25 -38 29 -93 30 -35 1 -75 8 -93 18 -18 9 -53 16 -78 16 -38 0 -52 -5 -77
-30z"/>
<path d="M345 14185 c17 -8 39 -14 50 -14 11 0 0 7 -25 15 -56 17 -64 17 -25
-1z"/>
<path d="M615 14185 c-22 -8 -31 -14 -20 -14 11 0 34 6 50 14 38 17 22 17 -30
0z"/>
<path d="M458 14163 c23 -2 59 -2 80 0 20 2 1 4 -43 4 -44 0 -61 -2 -37 -4z"/>
<path d="M967 14142 c-24 -26 -21 -47 8 -70 21 -17 23 -21 10 -32 -8 -7 -15
-20 -15 -29 0 -18 39 -61 54 -61 5 0 -3 9 -18 21 -31 25 -34 54 -5 70 21 11
20 11 -10 30 -35 21 -39 43 -14 71 9 10 14 18 11 18 -3 0 -12 -8 -21 -18z"/>
<path d="M3840 13980 l-50 -100 250 0 250 0 50 101 c28 55 47 99 43 96 -4 -3
-28 -46 -53 -96 l-44 -91 -238 0 c-131 0 -238 2 -238 5 0 3 20 46 45 95 25 50
43 90 40 90 -3 0 -27 -45 -55 -100z"/>
<path d="M1472 13996 c-8 -18 -22 -27 -49 -32 -21 -4 -51 -17 -66 -28 -24 -17
-43 -21 -112 -21 -70 0 -88 4 -113 22 -24 17 -35 20 -63 12 l-34 -8 35 3 c23
2 44 -4 63 -18 42 -31 182 -31 224 0 15 11 45 24 66 28 34 6 78 48 65 61 -3 3
-10 -6 -16 -19z"/>
<path d="M1983 13965 c-29 -13 -53 -27 -53 -30 0 -3 18 4 40 15 22 11 57 24
77 29 29 7 32 9 13 10 -14 0 -49 -10 -77 -24z"/>
<path d="M1718 13893 c6 -2 18 -2 25 0 6 3 1 5 -13 5 -14 0 -19 -2 -12 -5z"/>
<path d="M1828 13893 c6 -2 18 -2 25 0 6 3 1 5 -13 5 -14 0 -19 -2 -12 -5z"/>
<path d="M1773 13883 c9 -2 23 -2 30 0 6 3 -1 5 -18 5 -16 0 -22 -2 -12 -5z"/>
<path d="M360 13800 c8 -5 24 -10 34 -10 26 0 18 6 -19 14 -22 5 -26 4 -15 -4z"/>
<path d="M600 13800 c-21 -7 -21 -8 -5 -9 11 0 27 4 35 9 18 11 5 11 -30 0z"/>
<path d="M458 13783 c23 -2 59 -2 80 0 20 2 1 4 -43 4 -44 0 -61 -2 -37 -4z"/>
<path d="M1690 13360 l0 -300 240 0 240 0 0 208 0 208 -47 44 -48 45 40 -42
39 -43 -77 0 -77 0 0 82 0 82 43 -39 42 -40 -45 48 -44 47 -153 0 -153 0 0
-300z m300 200 l0 -90 85 0 85 0 0 -200 0 -200 -230 0 -230 0 0 290 0 290 145
0 145 0 0 -90z"/>
<path d="M2502 13567 l-92 -92 0 -208 0 -207 240 0 240 0 0 300 0 300 -148 0
-147 0 -93 -93z m378 -207 l0 -290 -230 0 -230 0 0 202 0 203 87 87 88 88 142
0 143 0 0 -290z"/>
<path d="M4032 13637 c-29 -31 -29 -77 1 -105 13 -12 29 -22 35 -22 7 0 12
-11 12 -25 0 -23 -3 -24 -67 -28 l-68 -3 68 -2 67 -2 0 -93 c0 -67 -4 -99 -16
-117 l-16 -25 20 22 c11 12 21 20 23 18 2 -2 3 41 1 95 l-3 99 73 4 73 3 -72
2 c-71 2 -73 3 -73 27 0 14 6 25 13 25 24 0 57 45 57 76 0 65 -84 98 -128 51z
m100 -4 c22 -20 23 -70 1 -95 -20 -22 -70 -23 -95 -1 -22 20 -23 70 -1 95 20
22 70 23 95 1z"/>
<path d="M1295 13574 c-16 -8 -55 -39 -85 -68 -109 -106 -174 -112 -267 -23
l-33 31 0 -156 0 -156 36 -32 c38 -33 74 -51 102 -49 9 0 0 6 -21 12 -20 7
-53 25 -72 40 l-35 28 0 146 0 147 28 -26 c36 -34 85 -58 117 -58 40 0 83 27
156 95 43 41 80 66 105 73 22 5 30 10 19 11 -11 0 -33 -6 -50 -15z"/>
<path d="M1404 13575 c21 -7 51 -26 67 -41 l29 -28 0 -144 0 -144 -40 36 c-22
20 -46 36 -53 36 -6 0 -3 -6 8 -12 11 -6 37 -27 58 -46 l37 -36 0 155 0 155
-32 31 c-39 36 -70 53 -95 53 -10 -1 -1 -7 21 -15z"/>
<path d="M3070 13430 l0 -130 150 0 149 0 3 -71 3 -72 50 71 50 72 98 0 97 0
0 130 0 130 -300 0 -300 0 0 -130z m590 0 l0 -120 -94 0 -93 0 -44 -62 -44
-63 -3 63 -3 62 -149 0 -150 0 0 120 0 120 290 0 290 0 0 -120z"/>
<path d="M255 13368 c-32 -79 -59 -149 -62 -155 -4 -10 59 -13 297 -13 238 0
301 3 297 13 -3 6 -30 76 -62 155 l-57 142 -178 0 -178 0 -57 -142z m466 -15
l57 -143 -288 0 -288 0 45 113 c25 61 51 127 59 145 l13 32 172 -2 173 -3 57
-142z"/>
<path d="M1305 13283 c-16 -9 -60 -44 -97 -79 -47 -44 -78 -65 -103 -70 -20
-3 -34 -9 -31 -11 15 -16 75 16 134 72 74 69 100 85 152 96 34 7 34 7 5 7 -16
1 -43 -6 -60 -15z"/>
<path d="M4100 13236 c0 -2 8 -10 18 -17 15 -13 16 -12 3 4 -13 16 -21 21 -21
13z"/>
<path d="M4010 13165 c-17 -25 -29 -45 -26 -45 3 0 19 20 36 45 17 25 29 45
26 45 -3 0 -19 -20 -36 -45z"/>
<path d="M4130 13196 c0 -2 8 -10 18 -17 15 -13 16 -12 3 4 -13 16 -21 21 -21
13z"/>
<path d="M4160 13156 c0 -2 8 -10 18 -17 15 -13 16 -12 3 4 -13 16 -21 21 -21
13z"/>
<path d="M4190 13116 c0 -2 8 -10 18 -17 15 -13 16 -12 3 4 -13 16 -21 21 -21
13z"/>
<path d="M3960 13095 c-7 -9 -11 -17 -9 -20 3 -2 10 5 17 15 14 24 10 26 -8 5z"/>
<path d="M685 12921 c5 -18 0 -20 -42 -24 l-48 -3 49 -2 c39 -2 47 -5 42 -18
-5 -12 -1 -14 17 -8 12 3 33 12 46 19 l25 13 -42 21 c-51 26 -55 26 -47 2z"/>
<path d="M1410 12920 c-39 -7 -37 -7 17 -4 l62 3 4 -32 c4 -31 4 -31 5 6 2 41
2 41 -88 27z"/>
<path d="M2130 12923 c-19 -1 -68 -6 -108 -9 l-73 -6 40 -46 40 -47 -97 -100
-97 -100 102 99 102 99 -35 43 -35 42 53 6 c29 3 86 8 126 11 l74 6 -6 -38
c-3 -21 -8 -65 -11 -98 -4 -33 -9 -73 -12 -89 l-5 -29 -37 42 -36 42 -200
-200 -199 -201 -38 37 -38 37 97 101 98 100 -102 -100 -103 -99 42 -43 42 -43
201 200 202 201 37 -46 c21 -25 40 -45 42 -43 3 3 34 248 34 271 0 7 -30 7
-100 0z"/>
<path d="M2630 12653 l-275 -278 278 275 c257 255 282 280 274 280 -1 0 -126
-125 -277 -277z"/>
<path d="M4080 12645 c-157 -157 -283 -285 -280 -285 3 0 133 128 290 285 157
157 283 285 280 285 -3 0 -133 -128 -290 -285z"/>
<path d="M3619 12903 c-13 -16 -12 -17 4 -4 9 7 17 15 17 17 0 8 -8 3 -21 -13z"/>
<path d="M1235 12901 l-29 -6 47 -39 48 -39 -133 -134 -133 -133 -41 47 -42
48 -7 -56 c-4 -31 -5 -65 -2 -75 3 -11 6 1 7 26 3 81 11 87 49 40 l34 -42 139
138 139 139 -42 37 -42 36 34 6 c19 3 48 7 64 9 18 3 12 4 -15 4 -25 0 -58 -2
-75 -6z"/>
<path d="M2660 12623 l-275 -278 278 275 c152 151 277 276 277 277 0 8 -25
-17 -280 -274z"/>
<path d="M490 12878 c-45 -13 -87 -43 -95 -68 -9 -28 2 -70 26 -100 20 -25 20
-24 -1 15 -27 53 -25 81 6 110 23 21 44 28 149 49 11 2 4 4 -15 4 -19 0 -51
-4 -70 -10z"/>
<path d="M3569 12853 c-13 -16 -12 -17 4 -4 16 13 21 21 13 21 -2 0 -10 -8
-17 -17z"/>
<path d="M1483 12785 c0 -38 2 -53 4 -32 2 20 2 52 0 70 -2 17 -4 1 -4 -38z"/>
<path d="M3519 12803 c-13 -16 -12 -17 4 -4 16 13 21 21 13 21 -2 0 -10 -8
-17 -17z"/>
<path d="M1252 12597 l-131 -132 34 -40 34 -40 -27 -6 c-24 -6 -22 -7 11 -8
l39 -1 -41 48 -40 48 127 127 127 126 48 -41 47 -40 -1 38 c-2 32 -3 34 -6 11
l-4 -28 -43 35 -43 35 -131 -132z"/>
<path d="M476 12640 c103 -112 127 -177 84 -220 -27 -27 -58 -39 -145 -56 -62
-12 -64 -13 -18 -9 121 10 193 54 193 118 0 38 -59 127 -121 182 -28 24 -26
21 7 -15z"/>
<path d="M3229 12513 c-13 -16 -12 -17 4 -4 9 7 17 15 17 17 0 8 -8 3 -21 -13z"/>
<path d="M930 12458 c0 -18 -3 -50 -6 -70 l-7 -38 39 2 c36 1 37 1 7 5 l-32 4
6 65 c3 35 3 64 -1 64 -3 0 -6 -15 -6 -32z"/>
<path d="M3179 12463 c-13 -16 -12 -17 4 -4 9 7 17 15 17 17 0 8 -8 3 -21 -13z"/>
<path d="M3129 12413 c-13 -16 -12 -17 4 -4 9 7 17 15 17 17 0 8 -8 3 -21 -13z"/>
<path d="M1027 12363 c18 -2 50 -2 70 0 21 2 7 4 -32 4 -38 0 -55 -2 -38 -4z"/>
<path d="M248 12343 c17 -2 47 -2 65 0 17 2 3 4 -33 4 -36 0 -50 -2 -32 -4z"/>
<path d="M656 12134 c-22 -13 -26 -18 -15 -25 11 -6 -29 -51 -159 -181 -130
-131 -175 -170 -181 -159 -7 11 -13 6 -26 -18 -9 -18 -15 -35 -13 -37 2 -2 21
1 43 7 28 8 35 13 24 20 -11 6 27 50 159 181 129 130 175 170 181 159 7 -11
10 -10 14 5 3 11 8 29 12 42 7 26 0 27 -39 6z"/>
<path d="M1386 12128 c-21 -8 -25 -13 -15 -19 10 -6 -38 -61 -186 -211 l-200
-203 203 200 c148 147 205 196 211 187 6 -10 11 -5 20 19 16 46 17 45 -33 27z"/>
<path d="M150 11340 c0 -54 19 -71 21 -17 l1 32 9 -32 c5 -18 13 -33 18 -33 4
0 13 15 19 33 l10 32 1 -32 c2 -54 21 -37 21 18 0 43 -3 50 -17 47 -11 -2 -19
-14 -21 -31 -4 -36 -18 -34 -25 3 -4 18 -13 30 -22 30 -11 0 -15 -12 -15 -50z"/>
<path d="M310 11355 c-12 -14 -11 -18 1 -26 8 -5 20 -9 27 -9 7 0 10 -5 7 -10
-4 -7 -13 -6 -27 1 -16 9 -19 8 -16 -3 3 -7 18 -13 34 -13 36 0 39 24 4 43
-24 13 -24 13 -2 9 15 -4 22 -1 19 6 -6 19 -33 19 -47 2z"/>
<path d="M391 11356 c-21 -25 -10 -61 18 -61 13 0 26 5 28 12 3 7 -3 9 -16 6
-17 -4 -21 -1 -21 17 0 17 4 20 21 15 15 -5 20 -3 17 6 -7 20 -33 22 -47 5z"/>
<path d="M270 11325 c0 -19 5 -35 10 -35 6 0 10 16 10 35 0 19 -4 35 -10 35
-5 0 -10 -16 -10 -35z"/>
<path d="M1227 10920 c3 -11 7 -20 9 -20 2 0 4 9 4 20 0 11 -4 20 -9 20 -5 0
-7 -9 -4 -20z"/>
<path d="M1290 10926 c0 -8 -6 -17 -12 -19 -8 -3 -6 -6 5 -6 11 -1 17 6 17 19
0 11 -2 20 -5 20 -3 0 -5 -6 -5 -14z"/>
<path d="M1310 10932 c0 -5 7 -9 15 -9 8 0 12 4 9 9 -3 4 -9 8 -15 8 -5 0 -9
-4 -9 -8z"/>
<path d="M1947 10920 c3 -11 7 -20 9 -20 2 0 4 9 4 20 0 11 -4 20 -9 20 -5 0
-7 -9 -4 -20z"/>
<path d="M2010 10926 c0 -8 -6 -17 -12 -19 -8 -3 -6 -6 5 -6 11 -1 17 6 17 19
0 11 -2 20 -5 20 -3 0 -5 -6 -5 -14z"/>
<path d="M2030 10932 c0 -5 7 -9 15 -9 8 0 12 4 9 9 -3 4 -9 8 -15 8 -5 0 -9
-4 -9 -8z"/>
<path d="M1085 10920 c4 -6 11 -8 16 -5 14 9 11 15 -7 15 -8 0 -12 -5 -9 -10z"/>
<path d="M1180 10909 c0 -5 5 -7 10 -4 6 3 10 8 10 11 0 2 -4 4 -10 4 -5 0
-10 -5 -10 -11z"/>
<path d="M1900 10909 c0 -5 5 -7 10 -4 6 3 10 8 10 11 0 2 -4 4 -10 4 -5 0
-10 -5 -10 -11z"/>
<path d="M353 10893 c13 -3 17 -15 17 -49 0 -24 5 -44 10 -44 6 0 10 18 10 40
0 33 4 42 23 50 17 7 11 9 -28 8 -27 0 -42 -2 -32 -5z"/>
<path d="M472 10879 c-8 -12 -8 -19 -2 -19 5 0 10 -13 10 -30 0 -22 5 -30 17
-30 13 0 14 3 5 12 -16 16 -15 45 0 50 10 4 9 9 -3 20 -14 14 -17 14 -27 -3z"/>
<path d="M520 10850 c0 -27 5 -50 10 -50 6 0 10 23 10 50 0 28 -4 50 -10 50
-5 0 -10 -22 -10 -50z"/>
<path d="M443 10840 c0 -25 2 -35 4 -22 2 12 2 32 0 45 -2 12 -4 2 -4 -23z"/>
<path d="M560 10861 c-8 -15 -8 -27 0 -41 11 -21 44 -27 55 -10 3 6 -4 10 -17
10 -18 0 -20 2 -8 9 8 6 18 7 23 4 5 -3 7 5 5 18 -4 32 -43 38 -58 10z"/>
<path d="M1379 10861 c9 -6 10 -11 2 -15 -6 -4 -11 -12 -11 -19 0 -12 29 23
30 36 0 4 -8 7 -17 7 -14 0 -15 -2 -4 -9z"/>
<path d="M2099 10861 c9 -6 10 -11 2 -15 -6 -4 -11 -12 -11 -19 0 -12 29 23
30 36 0 4 -8 7 -17 7 -14 0 -15 -2 -4 -9z"/>
<path d="M1227 10840 c3 -11 7 -20 9 -20 2 0 4 9 4 20 0 11 -4 20 -9 20 -5 0
-7 -9 -4 -20z"/>
<path d="M1290 10846 c0 -8 -6 -17 -12 -19 -8 -3 -6 -6 5 -6 11 -1 17 6 17 19
0 11 -2 20 -5 20 -3 0 -5 -6 -5 -14z"/>
<path d="M1310 10852 c0 -5 7 -9 15 -9 8 0 12 4 9 9 -3 4 -9 8 -15 8 -5 0 -9
-4 -9 -8z"/>
<path d="M1947 10840 c3 -11 7 -20 9 -20 2 0 4 9 4 20 0 11 -4 20 -9 20 -5 0
-7 -9 -4 -20z"/>
<path d="M2010 10846 c0 -8 -6 -17 -12 -19 -8 -3 -6 -6 5 -6 11 -1 17 6 17 19
0 11 -2 20 -5 20 -3 0 -5 -6 -5 -14z"/>
<path d="M2030 10852 c0 -5 7 -9 15 -9 8 0 12 4 9 9 -3 4 -9 8 -15 8 -5 0 -9
-4 -9 -8z"/>
<path d="M1085 10840 c-3 -5 1 -10 10 -10 9 0 13 5 10 10 -3 6 -8 10 -10 10
-2 0 -7 -4 -10 -10z"/>
<path d="M1820 10835 c-10 -12 -10 -15 2 -15 8 0 15 7 15 15 0 8 -1 15 -2 15
-2 0 -8 -7 -15 -15z"/>
<path d="M1180 10829 c0 -5 5 -7 10 -4 6 3 10 8 10 11 0 2 -4 4 -10 4 -5 0
-10 -5 -10 -11z"/>
<path d="M1900 10829 c0 -5 5 -7 10 -4 6 3 10 8 10 11 0 2 -4 4 -10 4 -5 0
-10 -5 -10 -11z"/>
<path d="M1378 10782 c8 -5 14 -13 14 -17 0 -4 -6 -12 -14 -17 -10 -8 -10 -9
2 -5 8 2 15 12 15 22 0 10 -7 20 -15 22 -12 4 -12 3 -2 -5z"/>
<path d="M2098 10782 c8 -5 14 -13 14 -17 0 -4 -6 -12 -14 -17 -10 -8 -10 -9
2 -5 8 2 15 12 15 22 0 10 -7 20 -15 22 -12 4 -12 3 -2 -5z"/>
<path d="M1227 10760 c3 -11 7 -20 9 -20 2 0 4 9 4 20 0 11 -4 20 -9 20 -5 0
-7 -9 -4 -20z"/>
<path d="M1290 10766 c0 -8 -6 -17 -12 -19 -8 -3 -6 -6 5 -6 11 -1 17 6 17 19
0 11 -2 20 -5 20 -3 0 -5 -6 -5 -14z"/>
<path d="M1310 10772 c0 -5 7 -9 15 -9 8 0 12 4 9 9 -3 4 -9 8 -15 8 -5 0 -9
-4 -9 -8z"/>
<path d="M1947 10760 c3 -11 7 -20 9 -20 2 0 4 9 4 20 0 11 -4 20 -9 20 -5 0
-7 -9 -4 -20z"/>
<path d="M2010 10766 c0 -8 -6 -17 -12 -19 -8 -3 -6 -6 5 -6 11 -1 17 6 17 19
0 11 -2 20 -5 20 -3 0 -5 -6 -5 -14z"/>
<path d="M2030 10772 c0 -5 7 -9 15 -9 8 0 12 4 9 9 -3 4 -9 8 -15 8 -5 0 -9
-4 -9 -8z"/>
<path d="M1085 10760 c-3 -5 1 -10 10 -10 9 0 13 5 10 10 -3 6 -8 10 -10 10
-2 0 -7 -4 -10 -10z"/>
<path d="M1180 10749 c0 -5 5 -7 10 -4 6 3 10 8 10 11 0 2 -4 4 -10 4 -5 0
-10 -5 -10 -11z"/>
<path d="M1900 10749 c0 -5 5 -7 10 -4 6 3 10 8 10 11 0 2 -4 4 -10 4 -5 0
-10 -5 -10 -11z"/>
<path d="M451 10334 c0 -11 3 -14 6 -6 3 7 2 16 -1 19 -3 4 -6 -2 -5 -13z"/>
<path d="M510 10329 c0 -5 5 -7 10 -4 6 3 10 8 10 11 0 2 -4 4 -10 4 -5 0 -10
-5 -10 -11z"/>
<path d="M3070 10130 l0 -200 300 0 300 0 0 200 0 200 -300 0 -300 0 0 -200z
m580 0 l0 -180 -280 0 -280 0 0 180 0 180 280 0 280 0 0 -180z"/>
<path d="M3812 10307 c-21 -22 -22 -33 -22 -178 0 -216 -25 -199 301 -199 324
0 299 -17 299 201 0 216 25 199 -301 199 -254 0 -256 0 -277 -23z m550 -5 c12
-12 12 -332 0 -344 -11 -11 -533 -11 -544 0 -12 12 -12 331 1 345 11 14 529
13 543 -1z"/>
<path d="M3819 10293 c-13 -16 -12 -17 4 -4 9 7 17 15 17 17 0 8 -8 3 -21 -13z"/>
<path d="M4340 10306 c0 -2 8 -10 18 -17 15 -13 16 -12 3 4 -13 16 -21 21 -21
13z"/>
<path d="M3810 9976 c0 -2 8 -10 18 -17 15 -13 16 -12 3 4 -13 16 -21 21 -21
13z"/>
<path d="M4349 9963 c-13 -16 -12 -17 4 -4 9 7 17 15 17 17 0 8 -8 3 -21 -13z"/>
<path d="M1122 10138 c-2 -46 -1 -48 26 -47 22 1 23 2 5 6 -18 3 -23 13 -26
46 l-4 42 -1 -47z"/>
<path d="M2433 10140 c-3 -11 -9 -17 -14 -14 -5 3 -9 1 -9 -5 0 -24 19 -18 29
9 5 17 8 30 5 30 -3 0 -8 -9 -11 -20z"/>
<path d="M2762 10130 c0 -19 2 -27 5 -17 2 9 2 25 0 35 -3 9 -5 1 -5 -18z"/>
<path d="M2880 10132 c0 -18 4 -32 8 -32 9 0 8 47 -1 57 -4 3 -7 -8 -7 -25z"/>
<path d="M1182 10120 c0 -19 2 -27 5 -17 2 9 2 25 0 35 -3 9 -5 1 -5 -18z"/>
<path d="M1210 10120 c0 -16 2 -30 4 -30 2 0 6 14 8 30 3 17 1 30 -4 30 -4 0
-8 -13 -8 -30z"/>
<path d="M1249 10118 c4 -28 6 -29 9 -9 2 13 0 27 -5 32 -6 6 -7 -3 -4 -23z"/>
<path d="M1292 10138 c-14 -14 -16 -32 -3 -23 6 3 14 -3 20 -12 6 -10 11 -13
11 -6 0 6 -5 15 -10 18 -8 5 -7 11 1 21 14 17 -2 19 -19 2z"/>
<path d="M2468 10142 c11 -7 11 -10 -2 -15 -23 -9 -20 -27 5 -27 15 0 20 5 17
22 -2 12 -10 23 -18 25 -12 4 -12 3 -2 -5z"/>
<path d="M2500 10125 c0 -14 2 -25 4 -25 2 0 6 11 8 25 3 14 1 25 -3 25 -5 0
-9 -11 -9 -25z"/>
<path d="M2565 10140 c17 -7 17 -9 3 -9 -10 -1 -18 -8 -18 -16 0 -9 9 -15 23
-14 20 0 20 1 3 8 -18 7 -18 8 -2 14 21 8 12 27 -12 26 -14 0 -13 -2 3 -9z"/>
<path d="M2600 10141 c0 -6 7 -8 15 -5 10 4 15 0 15 -11 0 -11 -5 -15 -15 -11
-8 3 -15 1 -15 -5 0 -6 8 -9 18 -7 9 2 17 12 17 23 0 11 -8 21 -17 23 -10 2
-18 -1 -18 -7z"/>
<path d="M2677 10144 c-14 -14 -7 -44 11 -44 14 0 15 2 2 10 -13 8 -12 10 3
10 10 0 17 5 15 12 -5 14 -22 21 -31 12z"/>
<path d="M2798 10143 c7 -3 16 -2 19 1 4 3 -2 6 -13 5 -11 0 -14 -3 -6 -6z"/>
<path d="M2840 10136 c6 -6 6 -14 0 -21 -6 -7 -3 -11 8 -11 11 0 17 8 17 21 0
13 -6 21 -17 21 -11 0 -14 -4 -8 -10z"/>
<path d="M2788 10123 c6 -2 18 -2 25 0 6 3 1 5 -13 5 -14 0 -19 -2 -12 -5z"/>
<path d="M2798 10103 c7 -3 16 -2 19 1 4 3 -2 6 -13 5 -11 0 -14 -3 -6 -6z"/>
<path d="M1163 10073 c32 -2 81 -2 110 0 29 2 3 3 -58 3 -60 0 -84 -1 -52 -3z"/>
<path d="M910 9410 l0 -300 300 0 300 0 0 300 0 300 -300 0 -300 0 0 -300z
m308 283 l-288 -3 -3 -288 -2 -287 -3 293 -2 292 293 -2 292 -3 -287 -2z m272
-288 l0 -275 -275 0 -275 0 0 275 0 275 275 0 275 0 0 -275z"/>
<path d="M1881 9699 c-58 -11 -68 -22 -11 -12 55 9 73 9 130 0 26 -3 37 -3 25
2 -35 14 -99 19 -144 10z"/>
<path d="M4017 9623 c-43 -43 -95 -95 -115 -117 l-37 -38 38 27 c21 16 44 40
52 55 7 14 42 52 78 83 l64 56 140 -142 140 -142 -143 -141 -142 -141 -141
141 -141 141 26 35 26 35 -31 -35 -31 -35 147 -148 148 -148 71 77 c39 43 105
109 148 148 l77 71 -148 148 -148 147 -78 -77z"/>
<path d="M1768 9651 c-43 -27 -71 -59 -97 -108 -21 -40 -5 -24 26 26 19 31 48
59 77 76 40 23 54 35 43 35 -2 0 -24 -13 -49 -29z"/>
<path d="M1883 9669 c-56 -11 -93 -31 -138 -76 -105 -105 -105 -271 1 -377 53
-54 113 -78 189 -78 150 0 268 117 268 267 0 169 -155 296 -320 264z m146 -21
c47 -15 120 -84 144 -137 43 -97 18 -219 -59 -293 -52 -49 -106 -70 -179 -70
-147 0 -258 110 -257 256 0 74 21 128 70 179 76 79 166 100 281 65z"/>
<path d="M2050 9677 c0 -3 21 -17 46 -32 29 -17 58 -45 77 -76 33 -54 46 -65
23 -20 -24 46 -61 84 -105 109 -22 13 -41 21 -41 19z"/>
<path d="M2807 9617 c-20 -11 -36 -25 -35 -31 4 -15 -99 -127 -207 -226 -68
-62 -155 -158 -155 -171 0 -21 19 -5 77 64 34 40 94 100 133 133 39 32 80 73
91 91 28 45 78 85 98 78 13 -4 21 5 31 32 8 21 16 41 18 46 6 12 -10 7 -51
-16z"/>
<path d="M417 9580 c-27 -5 -52 -12 -55 -15 -4 -4 11 -3 33 1 71 15 186 8 244
-15 30 -11 57 -19 59 -17 2 2 -21 13 -50 24 -64 24 -165 34 -231 22z"/>
<path d="M310 9545 c-14 -8 -20 -14 -15 -14 6 0 21 6 35 14 14 8 21 14 15 14
-5 0 -21 -6 -35 -14z"/>
<path d="M375 9547 c-63 -21 -100 -44 -129 -77 -54 -65 -19 -144 86 -191 46
-21 69 -24 163 -24 94 0 117 3 163 24 147 67 147 187 0 252 -65 28 -219 37
-283 16z m283 -26 c136 -60 136 -170 0 -232 -46 -21 -69 -24 -163 -24 -94 0
-117 3 -163 24 -154 70 -133 189 43 248 64 21 218 12 283 -16z"/>
<path d="M3072 9405 l-3 -155 213 1 c117 1 223 4 236 7 13 4 -81 6 -208 4
l-232 -4 4 146 3 146 288 0 287 0 0 -140 c0 -156 7 -144 -80 -154 -19 -2 -7
-3 28 -2 l62 1 0 152 0 153 -298 0 -297 0 -3 -155z"/>
<path d="M236 9490 c-20 -23 -36 -50 -35 -63 1 -19 2 -17 9 7 5 16 24 44 42
63 17 18 29 33 26 33 -3 0 -22 -18 -42 -40z"/>
<path d="M743 9495 c15 -18 32 -45 37 -61 7 -25 8 -26 9 -6 1 14 -14 38 -36
60 -21 21 -25 24 -10 7z"/>
<path d="M1644 9474 c-4 -22 -8 -52 -8 -69 0 -37 14 -109 20 -103 2 3 0 27 -5
54 -6 30 -6 68 0 98 5 27 7 51 5 54 -3 2 -8 -13 -12 -34z"/>
<path d="M2217 9470 c3 -25 7 -47 9 -49 8 -9 2 55 -6 74 -6 13 -7 5 -3 -25z"/>
<path d="M3513 9421 c-3 -11 -12 -22 -22 -24 -13 -4 -13 -5 2 -6 10 0 25 6 33
14 12 12 12 15 2 15 -10 0 -9 3 2 10 11 7 12 10 2 10 -8 0 -16 -9 -19 -19z"/>
<path d="M3210 9420 c12 -8 12 -10 1 -10 -23 0 -6 -11 25 -15 16 -2 23 -1 15
2 -11 5 -11 7 0 15 11 8 10 9 -3 4 -10 -3 -20 -1 -23 4 -4 6 -12 10 -18 10 -7
0 -6 -4 3 -10z"/>
<path d="M3275 9420 c-8 -13 3 -30 18 -30 7 0 6 4 -3 10 -13 9 -13 11 0 20 9
6 10 10 3 10 -6 0 -15 -4 -18 -10z"/>
<path d="M3322 9410 c0 -14 2 -19 5 -12 2 6 2 18 0 25 -3 6 -5 1 -5 -13z"/>
<path d="M3361 9416 c-16 -19 -11 -29 8 -17 7 5 12 14 9 21 -3 9 -8 7 -17 -4z"/>
<path d="M3391 9408 c0 -13 3 -17 6 -10 4 10 8 10 19 1 8 -6 14 -7 14 -3 0 5
-9 15 -20 22 -18 11 -20 10 -19 -10z"/>
<path d="M3441 9413 c-1 -14 5 -23 14 -23 8 0 15 5 15 11 0 5 -4 8 -9 4 -5 -3
-12 3 -14 12 -4 14 -5 13 -6 -4z"/>
<path d="M3920 9420 c0 -5 5 -9 11 -7 19 4 21 -21 2 -26 -16 -4 -16 -5 -1 -6
23 -1 32 17 18 34 -14 17 -30 20 -30 5z"/>
<path d="M3978 9423 c7 -3 16 -2 19 1 4 3 -2 6 -13 5 -11 0 -14 -3 -6 -6z"/>
<path d="M4018 9411 c-9 -13 -21 -20 -27 -17 -5 4 -12 2 -16 -4 -3 -5 3 -10
14 -10 11 0 23 5 26 10 5 8 11 7 21 -1 8 -6 17 -9 21 -5 3 3 1 6 -5 6 -6 0
-12 10 -14 23 l-3 22 -17 -24z"/>
<path d="M4060 9417 c0 -8 7 -20 15 -27 12 -10 15 -10 15 1 0 11 2 11 10 -1
12 -18 12 -2 0 25 -5 11 -9 14 -9 6 -1 -11 -4 -11 -16 -1 -12 10 -15 10 -15
-3z"/>
<path d="M4126 9421 c-3 -5 3 -7 15 -4 16 4 20 2 17 -8 -3 -8 -13 -13 -22 -13
-9 1 -16 -2 -16 -7 0 -13 28 -11 36 2 4 8 9 7 15 -2 7 -11 9 -9 9 5 0 18 1 18
20 1 20 -18 20 -17 19 11 -1 18 -3 22 -6 11 -4 -15 -7 -16 -20 -5 -19 16 -60
21 -67 9z"/>
<path d="M4230 9406 c0 -20 5 -26 21 -26 15 0 20 5 17 22 -5 34 -38 37 -38 4z
m30 -1 c0 -8 -4 -15 -10 -15 -5 0 -10 7 -10 15 0 8 5 15 10 15 6 0 10 -7 10
-15z"/>
<path d="M201 9382 c-1 -14 14 -38 37 -60 20 -21 24 -24 9 -7 -15 18 -32 45
-37 61 -7 25 -8 26 -9 6z"/>
<path d="M780 9380 c0 -11 -16 -39 -36 -62 l-37 -43 42 42 c22 23 41 51 41 63
0 11 -2 20 -5 20 -3 0 -5 -9 -5 -20z"/>
<path d="M2221 9364 c0 -17 -14 -57 -29 -87 -16 -31 -23 -52 -16 -47 21 18 55
110 51 138 -4 25 -4 25 -6 -4z"/>
<path d="M1674 9264 c26 -54 65 -92 128 -123 34 -17 75 -31 92 -30 27 1 25 2
-12 10 -23 4 -66 21 -94 36 -45 25 -65 45 -116 119 -7 11 -6 5 2 -12z"/>
<path d="M328 9259 c58 -27 146 -41 212 -33 53 6 166 42 158 50 -2 2 -29 -6
-59 -18 -76 -29 -212 -29 -289 1 -68 26 -80 26 -22 0z"/>
<path d="M2139 9193 c-13 -16 -12 -17 4 -4 16 13 21 21 13 21 -2 0 -10 -8 -17
-17z"/>
<path d="M2073 9154 c-23 -14 -61 -29 -85 -33 -36 -7 -38 -9 -13 -10 31 -1
128 39 139 58 9 14 10 14 -41 -15z"/>
<path d="M3382 8978 c-8 -8 -12 -55 -12 -145 0 -129 -1 -134 -22 -143 l-23 -9
23 0 c22 -1 22 -3 22 -134 0 -135 6 -158 40 -156 9 0 7 4 -7 9 -21 9 -22 16
-25 149 -2 78 -2 204 0 282 3 133 4 140 25 149 14 5 16 9 7 9 -9 1 -21 -4 -28
-11z"/>
<path d="M1077 8898 l-137 -80 0 -133 0 -133 137 -76 138 -75 55 31 c30 16 60
35 65 41 6 5 -15 -4 -46 -21 -31 -18 -59 -32 -63 -32 -3 0 -6 55 -6 123 l0
122 60 33 c33 18 60 35 60 38 0 3 -28 -11 -63 -30 l-63 -35 -119 66 c-66 36
-124 69 -129 73 -8 8 228 153 250 153 11 0 244 -141 244 -148 0 -2 -25 -18
-55 -35 -30 -17 -55 -34 -55 -36 0 -3 24 8 54 25 29 17 56 31 60 31 3 0 6 -55
6 -122 l0 -123 -60 -33 c-33 -18 -60 -35 -60 -38 0 -3 28 11 63 30 l62 35 3
134 3 134 -128 78 c-71 43 -130 79 -133 81 -3 1 -68 -34 -143 -78z m9 -165
l124 -68 0 -122 c0 -68 -3 -123 -6 -123 -3 0 -62 30 -130 68 l-124 67 0 123
c0 67 3 122 6 122 3 0 62 -30 130 -67z"/>
<path d="M1926 8905 c-71 -40 -136 -81 -145 -91 -11 -12 -7 -11 14 4 17 11 86
52 155 91 69 39 121 71 115 71 -5 0 -68 -34 -139 -75z"/>
<path d="M2835 8913 c28 -14 59 -33 70 -42 19 -15 19 -15 5 2 -13 18 -101 67
-117 67 -4 -1 15 -12 42 -27z"/>
<path d="M352 8776 c-77 -45 -144 -84 -147 -88 -6 -6 273 -171 290 -171 10 0
295 162 295 168 0 2 -243 145 -290 171 -3 1 -70 -34 -148 -80z m326 -34 c52
-30 90 -58 85 -62 -4 -5 -66 -42 -138 -84 l-130 -75 -45 26 c-186 107 -231
136 -223 143 4 5 66 42 138 84 l130 75 45 -26 c25 -14 87 -51 138 -81z"/>
<path d="M2905 8840 c-4 -6 -29 -22 -56 -35 -27 -14 -49 -28 -49 -30 0 -9 96
43 109 59 8 9 11 16 8 16 -3 0 -9 -5 -12 -10z"/>
<path d="M1770 8786 c0 -2 8 -10 18 -17 15 -13 16 -12 3 4 -13 16 -21 21 -21
13z"/>
<path d="M2765 8759 c-11 -6 -49 -28 -85 -49 -308 -177 -311 -179 -289 -206 7
-8 26 -22 43 -30 17 -8 23 -9 12 -2 -44 31 -59 45 -53 55 6 10 87 58 297 179
87 50 107 63 100 63 -3 0 -14 -4 -25 -10z"/>
<path d="M1870 8727 c0 -3 21 -18 48 -33 26 -15 58 -34 72 -42 l25 -14 -22 18
c-27 22 -123 77 -123 71z"/>
<path d="M3943 8683 c81 -2 213 -2 295 0 81 1 14 3 -148 3 -162 0 -229 -2
-147 -3z"/>
<path d="M2020 8637 c0 -2 15 -14 33 -27 20 -15 27 -17 18 -6 -13 16 -51 41
-51 33z"/>
<path d="M2063 8569 c-7 -7 -72 -45 -145 -85 -73 -41 -129 -74 -124 -74 14 0
264 140 277 156 14 17 8 19 -8 3z"/>
<path d="M2484 8446 c11 -9 24 -16 30 -16 12 0 7 5 -24 19 -24 11 -24 11 -6
-3z"/>
<path d="M494 7970 c0 -162 2 -229 3 -147 2 81 2 213 0 295 -1 81 -3 14 -3
-148z"/>
<path d="M1934 7970 c0 -157 2 -221 3 -142 2 78 2 206 0 285 -1 78 -3 14 -3
-143z"/>
<path d="M3598 8064 c-5 -4 -8 -24 -8 -45 0 -20 -6 -40 -12 -42 -7 -3 -8 -6
-3 -6 25 -2 36 18 33 58 -2 24 -6 39 -10 35z"/>
<path d="M4305 8058 c-2 -7 -5 -29 -7 -49 -3 -27 0 -35 9 -32 8 3 13 22 13 49
0 43 -7 57 -15 32z"/>
<path d="M3379 8033 c-13 -15 -12 -15 9 -4 23 12 28 21 13 21 -5 0 -15 -7 -22
-17z"/>
<path d="M4100 8040 c-13 -8 -12 -10 3 -10 9 0 17 5 17 10 0 12 -1 12 -20 0z"/>
<path d="M2353 7965 c0 -27 2 -40 4 -27 l4 22 289 0 289 0 4 -22 c2 -13 4 0 4
27 0 28 -2 40 -4 28 l-4 -23 -289 0 -289 0 -4 23 c-2 12 -4 0 -4 -28z"/>
<path d="M1067 7963 c79 -2 207 -2 285 0 79 1 15 3 -142 3 -157 0 -221 -2
-143 -3z"/>
<path d="M241 7536 c-47 -26 -50 -46 -51 -284 0 -243 5 -267 55 -290 40 -18
457 -17 494 2 47 25 51 49 51 286 0 237 -4 261 -51 286 -39 20 -462 20 -498 0z
m510 -25 l29 -29 0 -232 0 -232 -29 -29 -29 -29 -232 0 -232 0 -29 29 -29 29
0 232 0 232 29 29 29 29 232 0 232 0 29 -29z"/>
<path d="M699 7288 c-3 -22 -1 -34 4 -29 5 5 7 21 5 37 -3 27 -4 26 -9 -8z"/>
<path d="M500 7300 c-8 -5 -10 -10 -5 -10 6 0 17 5 25 10 8 5 11 10 5 10 -5 0
-17 -5 -25 -10z"/>
<path d="M1652 7427 c-21 -22 -22 -33 -22 -178 0 -216 -25 -199 301 -199 324
0 299 -17 299 201 0 216 25 199 -301 199 -254 0 -256 0 -277 -23z m550 -4 c16
-14 18 -34 18 -171 0 -131 -3 -158 -17 -174 -15 -17 -37 -18 -271 -18 -224 0
-258 2 -274 17 -16 14 -18 34 -18 171 0 131 3 158 17 174 15 17 37 18 271 18
224 0 258 -2 274 -17z"/>
<path d="M1890 7131 c0 -5 -8 -12 -17 -14 -10 -3 -2 -5 17 -6 23 0 30 2 21 8
-11 7 -11 9 0 14 10 4 9 6 -3 6 -10 1 -18 -3 -18 -8z"/>
<path d="M1960 7125 c0 -8 4 -15 8 -15 5 0 9 7 9 15 0 8 -4 15 -9 15 -4 0 -8
-7 -8 -15z"/>
<path d="M3223 7393 c81 -2 213 -2 295 0 81 1 14 3 -148 3 -162 0 -229 -2
-147 -3z"/>
<path d="M3792 7243 l-2 -153 300 0 300 0 -2 153 -2 152 -3 -147 -4 -148 -289
0 -289 0 -4 148 -3 147 -2 -152z"/>
<path d="M936 7364 c-23 -22 -23 -206 0 -228 23 -24 545 -24 568 0 12 12 16
38 16 114 0 76 -4 102 -16 114 -13 14 -53 16 -284 16 -231 0 -271 -2 -284 -16z
m562 -6 c16 -16 16 -200 0 -216 -9 -9 -84 -12 -278 -12 -194 0 -269 3 -278 12
-16 16 -16 200 0 216 9 9 84 12 278 12 194 0 269 -3 278 -12z"/>
<path d="M1176 7244 c-3 -8 8 -11 33 -11 21 0 38 6 38 12 0 14 -65 14 -71 -1z"/>
<path d="M2350 7245 l0 -135 300 0 300 0 0 135 0 135 -300 0 -300 0 0 -135z
m590 0 l0 -125 -290 0 -290 0 0 125 0 125 290 0 290 0 0 -125z"/>
<path d="M2430 7250 c0 -66 2 -67 59 -22 l23 19 -41 32 -41 33 0 -62z m46 -21
c-33 -26 -36 -25 -36 22 l0 40 30 -21 31 -22 -25 -19z"/>
<path d="M3223 7093 c81 -2 213 -2 295 0 81 1 14 3 -148 3 -162 0 -229 -2
-147 -3z"/>
<path d="M2084 6775 c4 -12 -5 -15 -47 -15 -40 0 -59 -5 -75 -20 -12 -12 -22
-24 -22 -27 0 -4 10 3 23 15 29 27 131 33 121 7 -4 -8 -3 -15 0 -15 10 0 66
30 66 35 0 5 -56 35 -66 35 -3 0 -4 -7 0 -15z"/>
<path d="M695 6720 c-19 -36 -19 -44 0 -36 12 4 15 -19 18 -162 l3 -167 2 167
c2 144 4 167 17 162 8 -4 15 -3 15 0 0 10 -30 66 -35 66 -2 0 -11 -13 -20 -30z"/>
<path d="M2855 6720 c-19 -36 -19 -44 0 -37 11 5 15 -6 18 -51 l3 -57 2 57 c2
46 5 56 17 52 8 -4 15 -3 15 0 0 10 -30 66 -35 66 -2 0 -11 -13 -20 -30z"/>
<path d="M1934 6530 c0 -96 2 -136 3 -87 2 48 2 126 0 175 -1 48 -3 8 -3 -88z"/>
<path d="M2844 6548 l-19 -23 23 19 c21 18 27 26 19 26 -2 0 -12 -10 -23 -22z"/>
<path d="M2563 6523 c48 -2 126 -2 175 0 48 1 8 3 -88 3 -96 0 -136 -2 -87 -3z"/>
<path d="M2444 6498 l-19 -23 23 19 c21 18 27 26 19 26 -2 0 -12 -10 -23 -22z"/>
<path d="M2423 6390 c0 -47 2 -66 4 -42 2 23 2 61 0 85 -2 23 -4 4 -4 -43z"/>
<path d="M684 6328 l-19 -23 23 19 c21 18 27 26 19 26 -2 0 -12 -10 -23 -22z"/>
<path d="M1904 6328 l-19 -23 23 19 c21 18 27 26 19 26 -2 0 -12 -10 -23 -22z"/>
<path d="M368 6303 c57 -2 147 -2 200 0 53 1 7 3 -103 3 -110 0 -154 -2 -97
-3z"/>
<path d="M1753 6303 c26 -2 67 -2 90 0 23 2 2 3 -48 3 -49 0 -68 -1 -42 -3z"/>
<path d="M170 5975 c-19 -49 -22 -75 -11 -75 6 0 11 5 11 10 0 6 9 10 19 10
11 0 23 -4 26 -10 17 -28 21 -4 7 40 -17 55 -37 64 -52 25z m26 -32 c-10 -10
-19 5 -10 18 6 11 8 11 12 0 2 -7 1 -15 -2 -18z"/>
<path d="M300 5987 c0 -8 -10 -13 -22 -13 -20 1 -23 -4 -23 -34 0 -32 3 -35
33 -38 l32 -3 0 50 c0 28 -4 51 -10 51 -5 0 -10 -6 -10 -13z m-2 -50 c2 -10
-3 -17 -12 -17 -18 0 -29 16 -21 31 9 14 29 6 33 -14z"/>
<path d="M780 5985 c0 -8 -6 -12 -12 -10 -23 8 -40 -11 -36 -41 2 -25 8 -29
36 -32 l32 -3 0 50 c0 28 -4 51 -10 51 -5 0 -10 -7 -10 -15z m-2 -48 c2 -10
-3 -17 -12 -17 -10 0 -16 9 -16 21 0 24 23 21 28 -4z"/>
<path d="M330 5975 c0 -16 30 -75 39 -75 11 0 36 69 28 77 -3 2 -12 -8 -20
-23 l-14 -27 -7 27 c-3 14 -11 26 -16 26 -6 0 -10 -2 -10 -5z"/>
<path d="M419 5964 c-12 -15 -11 -16 11 -10 25 6 25 6 2 -6 -32 -16 -24 -42
14 -46 31 -3 31 -3 25 35 -7 42 -30 54 -52 27z m38 -40 c-3 -3 -12 -4 -19 -1
-8 3 -5 6 6 6 11 1 17 -2 13 -5z"/>
<path d="M495 5972 c-9 -9 -5 -72 4 -72 5 0 11 12 13 27 4 39 28 42 28 4 0
-17 5 -31 11 -31 6 0 9 16 7 38 -3 33 -6 37 -30 38 -15 1 -30 -1 -33 -4z"/>
<path d="M578 5955 c-13 -30 5 -58 35 -53 30 4 34 29 5 26 -15 -2 -23 2 -23
12 0 10 8 14 23 13 25 -3 30 12 6 21 -26 10 -34 7 -46 -19z"/>
<path d="M660 5966 c-29 -36 6 -79 48 -60 14 6 11 9 -13 14 l-30 8 28 1 c28 1
35 19 15 39 -16 16 -33 15 -48 -2z m37 -12 c-3 -3 -12 -4 -19 -1 -8 3 -5 6 6
6 11 1 17 -2 13 -5z"/>
<path d="M279 5743 c5 -10 17 -27 26 -38 16 -19 16 -18 1 7 -9 15 -16 29 -16
32 0 3 19 7 43 9 40 3 39 4 -11 5 -47 2 -52 0 -43 -15z"/>
<path d="M990 5460 l0 -300 43 0 c173 0 326 69 378 172 49 96 31 231 -42 309
l-41 44 36 -45 c92 -113 84 -288 -18 -377 -57 -51 -198 -93 -308 -93 l-38 0 0
289 0 290 48 4 47 3 -52 2 -53 2 0 -300z"/>
<path d="M2601 5749 c-58 -11 -68 -22 -11 -12 55 9 73 9 130 0 26 -3 37 -3 25
2 -35 14 -99 19 -144 10z"/>
<path d="M3363 5648 l-293 -111 0 -188 0 -189 300 0 300 0 0 300 c0 165 -3
300 -7 299 -5 0 -140 -50 -300 -111z m297 -188 l0 -290 -290 0 -290 0 2 182 3
181 285 108 c157 59 286 108 288 108 1 1 2 -129 2 -289z"/>
<path d="M442 5736 c37 -8 87 -24 113 -35 25 -11 43 -16 40 -11 -10 16 -112
49 -167 54 -51 6 -50 5 14 -8z"/>
<path d="M1162 5736 c37 -8 87 -24 113 -35 25 -11 43 -16 40 -11 -10 16 -112
49 -167 54 -51 6 -50 5 14 -8z"/>
<path d="M2488 5701 c-43 -27 -71 -59 -97 -108 -21 -40 -5 -24 26 26 19 31 48
59 77 76 40 23 54 35 43 35 -2 0 -24 -13 -49 -29z"/>
<path d="M2770 5727 c0 -3 21 -17 46 -32 29 -17 58 -45 77 -76 33 -54 46 -65
23 -20 -24 46 -61 84 -105 109 -22 13 -41 21 -41 19z"/>
<path d="M1670 5644 c-11 -31 -19 -58 -17 -61 2 -2 13 20 23 49 l19 53 262 3
262 2 -20 -57 c-11 -32 -22 -85 -24 -118 l-4 -60 9 60 c8 50 26 113 48 173 3
9 -54 12 -266 12 l-271 0 -21 -56z"/>
<path d="M3899 5683 c-11 -15 -11 -16 1 -5 10 9 64 12 193 12 l179 0 54 -46
54 -46 0 -184 0 -184 -290 0 -290 0 0 183 c0 132 3 187 13 197 10 12 9 12 -5
1 -16 -12 -18 -34 -18 -202 l0 -189 300 0 300 0 0 189 0 189 -59 51 -59 51
-180 0 c-159 0 -181 -2 -193 -17z"/>
<path d="M336 5643 c30 -70 46 -155 41 -223 -3 -39 -2 -55 3 -40 19 61 6 172
-32 256 -10 24 -21 44 -24 44 -2 0 3 -17 12 -37z"/>
<path d="M644 5640 c48 -58 70 -135 62 -212 -11 -108 -66 -178 -173 -218 -60
-22 -227 -49 -239 -38 -3 4 3 20 15 37 26 37 61 111 61 131 0 8 -11 -10 -23
-40 -13 -30 -35 -73 -50 -95 l-27 -40 36 -3 c19 -2 67 2 105 7 190 30 290 115
305 259 9 83 -14 157 -67 213 l-41 44 36 -45z"/>
<path d="M3849 5643 l-24 -28 28 24 c25 23 32 31 24 31 -2 0 -14 -12 -28 -27z"/>
<path d="M1636 5515 c-7 -61 2 -162 16 -185 6 -10 7 -7 2 10 -4 14 -8 71 -7
128 0 56 -1 102 -2 102 -1 0 -5 -25 -9 -55z"/>
<path d="M2364 5524 c-4 -22 -8 -52 -8 -69 0 -37 14 -109 20 -103 2 3 0 27 -5
54 -6 30 -6 68 0 98 5 27 7 51 5 54 -3 2 -8 -13 -12 -34z"/>
<path d="M2937 5520 c3 -25 7 -47 9 -49 8 -9 2 55 -6 74 -6 13 -7 5 -3 -25z"/>
<path d="M2175 5392 c3 -35 9 -71 15 -80 8 -13 9 -11 4 11 -3 15 -10 51 -15
80 l-8 52 4 -63z"/>
<path d="M2941 5414 c0 -17 -14 -57 -29 -87 -16 -31 -23 -52 -16 -47 21 18 55
110 51 138 -4 25 -4 25 -6 -4z"/>
<path d="M2394 5314 c26 -54 65 -92 128 -123 34 -17 75 -31 92 -30 27 1 25 2
-12 10 -23 4 -66 21 -94 36 -45 25 -65 45 -116 119 -7 11 -6 5 2 -12z"/>
<path d="M1661 5308 c-1 -4 6 -26 15 -48 l16 -40 270 0 269 0 -7 23 c-7 25
-23 55 -24 45 0 -4 4 -18 10 -32 l10 -26 -261 0 -260 0 -19 43 c-10 23 -19 39
-19 35z"/>
<path d="M2859 5243 c-13 -16 -12 -17 4 -4 9 7 17 15 17 17 0 8 -8 3 -21 -13z"/>
<path d="M2781 5199 c-33 -17 -70 -29 -93 -29 -21 0 -38 -3 -38 -7 0 -5 66 -6
147 -3 147 4 147 4 53 10 -91 5 -94 6 -63 19 18 7 38 19 44 27 14 17 17 18
-50 -17z"/>
<path d="M190 4852 l0 -188 145 -107 c80 -59 150 -108 155 -110 4 -1 74 47
154 107 l146 108 0 189 0 189 -300 0 -300 0 0 -188z m590 -5 l0 -183 -140
-104 c-78 -58 -144 -105 -147 -105 -3 1 -71 48 -149 105 l-143 105 -1 183 0
182 290 0 290 0 0 -183z"/>
<path d="M4052 5004 c-23 -14 -42 -27 -42 -30 0 -3 19 6 43 20 l42 25 45 -25
c25 -14 36 -18 25 -9 -52 43 -68 45 -113 19z"/>
<path d="M3950 4942 l-45 -27 68 -3 67 -3 0 -239 0 -240 55 0 55 0 0 240 0
240 67 0 c70 0 71 3 11 39 -46 28 -51 21 -5 -8 l32 -21 -57 0 -58 0 0 -240 0
-240 -45 0 -45 0 0 240 0 240 -57 0 -58 0 33 21 c17 12 32 23 32 25 0 6 -2 5
-50 -24z"/>
<path d="M2461 4900 c-8 -14 -21 -35 -29 -47 -8 -13 -12 -23 -9 -23 3 0 14 15
26 33 l21 32 0 -57 0 -58 240 0 240 0 0 -45 0 -45 -240 0 -240 0 0 -57 0 -58
-21 33 c-29 45 -36 40 -8 -5 36 -61 39 -60 39 10 l0 67 240 0 240 0 0 55 0 55
-240 0 -239 0 -3 68 c-3 63 -4 66 -17 42z"/>
<path d="M3550 4857 l0 -67 -240 0 -240 0 0 -55 0 -55 240 0 240 0 0 -67 c0
-70 3 -71 39 -10 28 45 21 50 -8 5 l-21 -33 0 58 0 57 -240 0 -240 0 0 45 0
45 240 0 240 0 0 58 0 57 21 -32 c29 -46 36 -41 8 5 -36 60 -39 59 -39 -11z"/>
<path d="M910 4735 l0 -155 243 1 c133 0 250 3 259 7 10 4 -97 6 -237 4 l-255
-3 0 146 0 146 255 -3 c140 -2 247 0 237 4 -9 4 -126 7 -259 7 l-243 1 0 -155z"/>
<path d="M1707 4812 l-77 -77 78 -78 77 -77 165 1 c91 0 173 3 182 7 10 4 -65
6 -165 4 l-182 -3 -73 73 -72 73 74 74 73 73 181 -4 c100 -2 174 0 164 4 -9 4
-91 7 -182 7 l-165 1 -78 -78z"/>
<path d="M1463 4841 c46 -55 46 -156 0 -211 -14 -17 -19 -28 -11 -25 69 27 69
233 0 260 -8 3 -3 -8 11 -24z"/>
<path d="M2183 4841 c46 -55 46 -156 0 -211 -14 -17 -19 -28 -11 -25 69 27 69
233 0 260 -8 3 -3 -8 11 -24z"/>
<path d="M2386 4778 c-26 -44 -24 -61 19 -113 9 -11 5 0 -9 25 l-25 45 25 43
c14 23 23 42 20 42 -3 0 -16 -19 -30 -42z"/>
<path d="M3634 4780 l25 -45 -25 -43 c-14 -23 -23 -42 -20 -42 3 0 16 19 30
42 26 44 24 61 -19 113 -9 11 -5 0 9 -25z"/>
<path d="M440 4080 l0 -240 -67 0 c-70 0 -71 -3 -10 -39 45 -28 50 -21 5 8
l-33 21 58 0 57 0 0 240 0 240 45 0 45 0 0 -240 0 -240 58 0 57 0 -32 -21
c-46 -29 -41 -36 5 -8 60 36 59 39 -11 39 l-67 0 0 240 0 240 -55 0 -55 0 0
-240z"/>
<path d="M1840 4257 l-94 -62 67 -3 67 -3 0 -174 0 -175 -67 0 c-70 0 -71 -3
-10 -39 45 -28 50 -21 5 8 l-33 21 58 0 57 0 0 185 0 184 -57 3 -56 3 74 49
c40 27 78 49 84 49 6 0 44 -22 84 -49 l74 -49 -56 -3 -57 -3 0 -184 0 -185 58
0 57 0 -32 -21 c-46 -29 -41 -36 5 -8 60 36 59 39 -11 39 l-67 0 0 175 0 174
67 3 66 3 -69 46 c-38 25 -80 53 -94 62 -25 16 -27 15 -120 -46z"/>
<path d="M2604 4311 c-25 -11 -54 -49 -54 -71 0 -8 8 1 18 20 32 65 129 63
158 -4 7 -18 13 -24 14 -14 1 48 -84 91 -136 69z"/>
<path d="M3310 4200 l0 -120 -120 0 -120 0 0 -65 0 -65 120 0 120 0 0 -115 0
-115 65 0 65 0 0 115 0 115 115 0 115 0 0 65 0 65 -115 0 -115 0 0 120 0 120
-65 0 -65 0 0 -120z m120 -10 l0 -120 115 0 115 0 0 -55 0 -55 -115 0 -115 0
0 -115 0 -115 -55 0 -55 0 0 115 0 115 -120 0 -120 0 0 55 0 55 120 0 120 0 0
120 0 120 55 0 55 0 0 -120z"/>
<path d="M3790 4020 l0 -300 80 0 80 0 0 220 0 220 220 0 220 0 0 80 0 80
-300 0 -300 0 0 -300z m590 220 l0 -70 -220 0 -220 0 0 -220 0 -220 -70 0 -70
0 0 290 0 290 290 0 290 0 0 -70z"/>
<path d="M2542 4200 c0 -14 2 -19 5 -12 2 6 2 18 0 25 -3 6 -5 1 -5 -13z"/>
<path d="M2742 4200 c0 -14 2 -19 5 -12 2 6 2 18 0 25 -3 6 -5 1 -5 -13z"/>
<path d="M976 4114 c-33 -49 -59 -93 -59 -99 0 -6 26 -50 59 -99 l59 -89 3 66
3 67 174 0 175 0 0 -67 c0 -70 3 -71 39 -10 28 45 21 50 -8 5 l-21 -33 0 58 0
57 -185 0 -184 0 -3 -57 -3 -56 -49 74 c-27 40 -49 78 -49 84 0 6 22 44 49 84
l49 74 3 -56 3 -57 184 0 185 0 0 58 0 57 21 -32 c29 -46 36 -41 8 5 -36 60
-39 59 -39 -11 l0 -67 -175 0 -174 0 -3 67 -3 66 -59 -89z"/>
<path d="M2550 4161 c0 -8 10 -30 23 -48 20 -30 26 -33 75 -33 55 0 112 -19
146 -48 20 -16 20 -16 6 2 -8 11 -34 28 -58 38 l-43 19 21 26 c11 14 20 33 20
42 -1 9 -7 2 -14 -14 -13 -29 -51 -55 -81 -55 -30 0 -68 26 -81 55 -7 16 -13
24 -14 16z"/>
<path d="M1474 4060 l25 -45 -25 -43 c-14 -23 -23 -42 -20 -42 3 0 16 19 30
42 26 44 24 61 -19 113 -9 11 -5 0 9 -25z"/>
<path d="M2519 4053 c-34 -29 -59 -79 -58 -115 0 -13 6 -2 13 25 15 54 38 84
81 103 17 7 23 13 13 14 -9 0 -31 -12 -49 -27z"/>
<path d="M2825 3970 c3 -14 9 -73 12 -132 l6 -108 -191 0 -191 0 -4 93 -3 92
-2 -97 -2 -98 201 0 202 0 -6 113 c-3 61 -10 123 -16 137 l-12 25 6 -25z"/>
<path d="M425 3765 c52 -43 69 -45 113 -19 23 14 42 27 42 30 0 3 -19 -6 -42
-20 l-43 -25 -45 25 c-25 14 -36 18 -25 9z"/>
<path d="M1865 3765 c52 -43 69 -45 113 -19 23 14 42 27 42 30 0 3 -19 -6 -42
-20 l-43 -25 -45 25 c-25 14 -36 18 -25 9z"/>
<path d="M190 3520 l0 -80 110 0 110 0 0 -220 0 -220 80 0 80 0 0 220 0 220
110 0 110 0 0 80 0 80 -300 0 -300 0 0 -80z m590 0 l0 -70 -110 0 -110 0 0
-220 0 -220 -70 0 -70 0 0 220 0 220 -110 0 -110 0 0 70 0 70 290 0 290 0 0
-70z"/>
<path d="M1027 3587 c-32 -8 -70 -23 -85 -34 l-27 -20 -3 -230 c-2 -210 -1
-231 15 -244 15 -11 16 -11 6 1 -9 10 -13 63 -13 187 0 169 1 173 19 163 11
-5 26 -10 33 -10 7 1 -2 7 -19 15 -38 16 -46 40 -10 30 l22 -7 -22 17 c-13 9
-23 21 -23 26 0 6 9 7 23 3 21 -6 21 -6 -3 15 l-25 21 23 20 c42 36 99 45 272
45 173 0 230 -9 272 -45 l23 -20 -25 -21 c-24 -21 -24 -21 -2 -15 13 4 22 3
22 -3 0 -5 -10 -17 -22 -26 l-23 -17 23 7 c24 7 31 -8 10 -22 -7 -4 -38 -13
-68 -19 -37 -8 -45 -12 -25 -13 17 0 47 6 68 13 l37 14 0 -172 c0 -123 -4
-176 -12 -186 -11 -12 -10 -12 5 -1 15 12 17 36 17 241 l0 229 -26 20 c-15 11
-43 26 -63 32 -55 17 -325 21 -394 6z"/>
<path d="M1915 3595 c-5 -2 -27 -6 -49 -10 -21 -3 -36 -8 -34 -11 3 -2 26 0
51 5 l47 8 0 -143 0 -144 -144 0 -143 0 8 47 c5 25 7 48 5 51 -6 6 -20 -66
-20 -103 0 -37 14 -109 20 -103 2 3 0 26 -5 51 l-8 47 143 0 143 0 4 -152 3
-153 2 152 2 152 153 4 152 3 -152 2 -153 2 0 144 0 143 47 -8 c25 -5 48 -7
50 -5 7 7 -106 27 -122 21z"/>
<path d="M2601 3589 c-58 -11 -68 -22 -11 -12 55 9 73 9 130 0 26 -3 37 -3 25
2 -35 14 -99 19 -144 10z"/>
<path d="M3321 3589 c-58 -11 -68 -22 -11 -12 55 9 73 9 130 0 26 -3 37 -3 25
2 -35 14 -99 19 -144 10z"/>
<path d="M4075 3595 c-5 -2 -27 -6 -49 -10 -21 -3 -36 -8 -34 -11 3 -2 26 0
51 5 l47 8 3 -301 2 -301 3 301 2 301 47 -8 c25 -5 48 -7 50 -5 7 7 -106 27
-122 21z"/>
<path d="M1768 3541 c-43 -27 -71 -59 -97 -108 -21 -40 -5 -24 26 26 19 31 48
59 77 76 40 23 54 35 43 35 -2 0 -24 -13 -49 -29z"/>
<path d="M2050 3567 c0 -3 21 -17 46 -32 29 -17 58 -45 77 -76 33 -54 46 -65
23 -20 -24 46 -61 84 -105 109 -22 13 -41 21 -41 19z"/>
<path d="M2488 3541 c-43 -27 -71 -59 -97 -108 -21 -42 -3 -24 24 23 l27 46
104 -103 104 -104 -102 -102 c-57 -57 -104 -103 -105 -103 -1 0 -14 20 -29 45
-14 25 -28 45 -30 45 -8 0 25 -57 51 -88 32 -39 138 -92 179 -91 35 1 28 5
-24 13 -19 4 -59 20 -89 37 l-54 31 104 104 104 104 102 -102 c56 -56 99 -106
96 -112 -4 -6 1 -5 10 3 17 14 24 26 9 17 -5 -3 -54 41 -110 97 l-102 102 104
104 104 103 27 -46 c30 -51 44 -63 21 -17 -24 46 -61 84 -105 109 -56 32 -52
20 5 -13 l46 -27 -103 -104 c-57 -57 -104 -104 -104 -104 0 0 -47 47 -104 104
l-103 104 46 27 c40 23 54 35 43 35 -2 0 -24 -13 -49 -29z"/>
<path d="M3208 3541 c-43 -27 -71 -59 -97 -108 -21 -40 -5 -24 26 26 19 31 48
59 77 76 40 23 54 35 43 35 -2 0 -24 -13 -49 -29z"/>
<path d="M3490 3567 c0 -3 21 -17 46 -32 29 -17 58 -45 77 -76 33 -54 46 -65
23 -20 -24 46 -61 84 -105 109 -22 13 -41 21 -41 19z"/>
<path d="M3928 3541 c-43 -27 -71 -59 -97 -108 -21 -40 -5 -24 26 26 19 31 48
59 77 76 40 23 54 35 43 35 -2 0 -24 -13 -49 -29z"/>
<path d="M4210 3567 c0 -3 21 -17 46 -32 29 -17 58 -45 77 -76 33 -54 46 -65
23 -20 -24 46 -61 84 -105 109 -22 13 -41 21 -41 19z"/>
<path d="M978 3473 c7 -3 16 -2 19 1 4 3 -2 6 -13 5 -11 0 -14 -3 -6 -6z"/>
<path d="M1428 3473 c7 -3 16 -2 19 1 4 3 -2 6 -13 5 -11 0 -14 -3 -6 -6z"/>
<path d="M1055 3458 c28 -3 97 -6 155 -6 58 0 128 3 155 6 28 4 -42 7 -155 7
-113 0 -182 -3 -155 -7z"/>
<path d="M978 3433 c7 -3 16 -2 19 1 4 3 -2 6 -13 5 -11 0 -14 -3 -6 -6z"/>
<path d="M1428 3433 c7 -3 16 -2 19 1 4 3 -2 6 -13 5 -11 0 -14 -3 -6 -6z"/>
<path d="M1055 3418 c28 -3 97 -6 155 -6 58 0 128 3 155 6 28 4 -42 7 -155 7
-113 0 -182 -3 -155 -7z"/>
<path d="M1003 3393 c9 -2 25 -2 35 0 9 3 1 5 -18 5 -19 0 -27 -2 -17 -5z"/>
<path d="M2217 3360 c3 -25 7 -47 9 -49 8 -9 2 55 -6 74 -6 13 -7 5 -3 -25z"/>
<path d="M2364 3364 c-4 -22 -8 -52 -8 -69 0 -37 14 -109 20 -103 2 3 0 27 -5
54 -6 30 -6 68 0 98 5 27 7 51 5 54 -3 2 -8 -13 -12 -34z"/>
<path d="M2937 3360 c3 -25 7 -47 9 -49 8 -9 2 55 -6 74 -6 13 -7 5 -3 -25z"/>
<path d="M3084 3364 c-4 -22 -8 -52 -8 -69 0 -37 14 -109 20 -103 2 3 0 26 -5
51 l-8 47 301 3 301 2 -301 3 -301 2 8 47 c5 25 7 48 5 51 -3 2 -8 -13 -12
-34z"/>
<path d="M3657 3360 c3 -25 7 -47 9 -49 8 -9 2 55 -6 74 -6 13 -7 5 -3 -25z"/>
<path d="M3804 3364 c-4 -22 -8 -52 -8 -69 0 -37 14 -109 20 -103 2 3 0 27 -5
54 -6 30 -6 68 0 98 5 27 7 51 5 54 -3 2 -8 -13 -12 -34z"/>
<path d="M4377 3360 c3 -25 7 -47 9 -49 8 -9 2 55 -6 74 -6 13 -7 5 -3 -25z"/>
<path d="M1133 3383 c42 -2 112 -2 155 0 42 1 7 3 -78 3 -85 0 -120 -2 -77 -3z"/>
<path d="M2221 3254 c0 -17 -14 -57 -29 -87 -16 -31 -23 -52 -16 -47 21 18 55
110 51 138 -4 25 -4 25 -6 -4z"/>
<path d="M2941 3254 c0 -17 -14 -57 -29 -87 -16 -31 -23 -52 -16 -47 21 18 55
110 51 138 -4 25 -4 25 -6 -4z"/>
<path d="M3661 3254 c0 -17 -14 -57 -29 -87 -16 -31 -23 -52 -16 -47 21 18 55
110 51 138 -4 25 -4 25 -6 -4z"/>
<path d="M4381 3254 c0 -17 -14 -57 -29 -87 -16 -31 -23 -52 -16 -47 21 18 55
110 51 138 -4 25 -4 25 -6 -4z"/>
<path d="M1674 3154 c26 -54 65 -92 128 -123 34 -17 75 -31 92 -30 27 1 25 2
-12 10 -23 4 -66 21 -94 36 -45 25 -65 45 -116 119 -7 11 -6 5 2 -12z"/>
<path d="M3114 3154 c26 -54 65 -92 128 -123 34 -17 75 -31 92 -30 27 1 25 2
-12 10 -23 4 -66 21 -94 36 -45 25 -65 45 -116 119 -7 11 -6 5 2 -12z"/>
<path d="M3834 3154 c26 -54 65 -92 128 -123 34 -17 75 -31 92 -30 27 1 25 2
-12 10 -23 4 -66 21 -94 36 -45 25 -65 45 -116 119 -7 11 -6 5 2 -12z"/>
<path d="M2139 3083 c-13 -16 -12 -17 4 -4 16 13 21 21 13 21 -2 0 -10 -8 -17
-17z"/>
<path d="M3579 3083 c-13 -16 -12 -17 4 -4 16 13 21 21 13 21 -2 0 -10 -8 -17
-17z"/>
<path d="M4299 3083 c-13 -16 -12 -17 4 -4 16 13 21 21 13 21 -2 0 -10 -8 -17
-17z"/>
<path d="M2073 3044 c-23 -14 -61 -29 -85 -33 -36 -7 -38 -9 -13 -10 31 -1
128 39 139 58 9 14 10 14 -41 -15z"/>
<path d="M2793 3044 c-23 -14 -61 -29 -85 -33 -36 -7 -38 -9 -13 -10 31 -1
128 39 139 58 9 14 10 14 -41 -15z"/>
<path d="M3513 3044 c-23 -14 -61 -29 -85 -33 -36 -7 -38 -9 -13 -10 31 -1
128 39 139 58 9 14 10 14 -41 -15z"/>
<path d="M4233 3044 c-23 -14 -61 -29 -85 -33 -36 -7 -38 -9 -13 -10 31 -1
128 39 139 58 9 14 10 14 -41 -15z"/>
<path d="M960 3040 c8 -5 22 -9 30 -9 10 0 8 3 -5 9 -27 12 -43 12 -25 0z"/>
<path d="M1435 3040 c-13 -6 -15 -9 -5 -9 8 0 22 4 30 9 18 12 2 12 -25 0z"/>
<path d="M1018 3023 c6 -2 18 -2 25 0 6 3 1 5 -13 5 -14 0 -19 -2 -12 -5z"/>
<path d="M1378 3023 c6 -2 18 -2 25 0 6 3 1 5 -13 5 -14 0 -19 -2 -12 -5z"/>
<path d="M1133 3013 c42 -2 112 -2 155 0 42 1 7 3 -78 3 -85 0 -120 -2 -77 -3z"/>
<path d="M342 2727 l-152 -152 77 -75 78 -75 -70 73 -69 72 284 0 285 0 -140
-140 -140 -140 -72 72 c-40 40 -73 70 -73 67 0 -2 33 -37 73 -77 l72 -72 148
148 147 147 -77 75 -78 75 70 -72 69 -73 -284 0 -285 0 145 145 145 145 75
-73 75 -72 -75 78 c-41 42 -75 77 -75 77 0 0 -69 -69 -153 -153z"/>
<path d="M1058 2727 l152 -152 -73 -75 -72 -75 75 73 75 72 140 -140 140 -140
-285 0 -284 0 69 73 70 72 -78 -75 c-42 -41 -77 -76 -77 -77 0 -2 136 -3 302
-3 l303 0 -148 148 -147 147 73 75 72 75 -75 -73 -75 -72 -145 145 -145 145
285 0 284 0 -69 -70 c-38 -38 -67 -70 -64 -70 2 0 38 34 79 75 l74 75 -304 0
-305 0 153 -153z"/>
<path d="M1679 2815 c57 -75 79 -119 91 -185 7 -39 8 -41 9 -13 1 37 -23 104
-52 146 -25 36 -16 45 20 20 42 -29 109 -53 146 -52 28 1 26 2 -13 9 -66 12
-110 34 -185 91 l-67 51 51 -67z"/>
<path d="M2182 2844 c-24 -20 -73 -52 -110 -71 -37 -19 -56 -31 -42 -28 14 4
44 18 67 31 23 13 44 24 46 24 3 0 -11 -32 -31 -71 -33 -64 -37 -79 -37 -148
1 -66 5 -85 33 -140 18 -35 31 -66 29 -68 -2 -2 -33 11 -68 29 -55 28 -74 32
-140 33 -69 0 -84 -4 -148 -37 -39 -20 -71 -34 -71 -31 0 2 11 23 24 46 13 23
27 53 31 67 3 14 -9 -5 -28 -42 -19 -36 -52 -88 -73 -114 l-39 -48 60 49 c91
74 154 99 245 99 89 0 156 -28 247 -102 l58 -47 -47 58 c-74 91 -102 158 -102
247 0 90 25 154 97 243 26 31 46 57 45 57 -2 0 -22 -17 -46 -36z m-21 -491
c13 -16 12 -17 -3 -4 -10 7 -18 15 -18 17 0 8 8 3 21 -13z"/>
<path d="M3080 2575 l0 -295 295 0 295 0 0 295 0 295 -295 0 -295 0 0 -295z
m580 255 l0 -30 -285 0 -285 0 0 30 0 30 285 0 285 0 0 -30z m0 -290 l0 -250
-285 0 -285 0 0 250 0 250 285 0 285 0 0 -250z"/>
<path d="M3800 2585 l0 -225 300 0 300 0 0 225 0 225 -300 0 -300 0 0 -225z
m580 165 l0 -50 -285 0 -285 0 0 50 0 50 285 0 285 0 0 -50z m10 -220 l0 -160
-290 0 -290 0 0 160 0 160 290 0 290 0 0 -160z"/>
<path d="M1948 2733 c12 -2 30 -2 40 0 9 3 -1 5 -23 4 -22 0 -30 -2 -17 -4z"/>
<path d="M2389 2587 l20 -33 -20 -31 -21 -32 260 -1 260 0 21 32 c20 32 20 33
1 63 l-19 30 -261 2 -261 3 20 -33z m163 -5 c15 -25 15 -29 0 -55 -16 -25 -21
-27 -89 -27 -40 0 -73 2 -73 5 0 3 7 16 15 29 13 20 13 25 0 42 -8 10 -15 22
-15 27 0 4 33 7 73 7 69 0 74 -1 89 -28z m20 -54 c-9 -15 -18 -26 -20 -24 -2
3 3 15 12 28 14 21 14 27 1 44 -8 10 -14 24 -15 29 0 6 9 -3 20 -19 18 -28 18
-31 2 -58z m160 54 c15 -25 15 -29 0 -55 -16 -25 -21 -27 -89 -27 -40 0 -73 2
-73 5 0 3 7 16 15 29 13 20 13 25 0 42 -8 10 -15 22 -15 27 0 4 33 7 73 7 69
0 74 -1 89 -28z m170 0 c15 -25 15 -29 0 -55 -16 -25 -21 -27 -89 -27 -40 0
-73 2 -73 5 0 3 7 16 15 29 13 20 13 25 0 42 -8 10 -15 22 -15 27 0 4 33 7 73
7 69 0 74 -1 89 -28z"/>
<path d="M1773 2545 c0 -22 2 -30 4 -17 2 12 2 30 0 40 -3 9 -5 -1 -4 -23z"/>
<path d="M2430 1855 l0 -295 225 0 225 0 0 295 0 295 -225 0 -225 0 0 -295z
m440 275 c0 -6 -78 -10 -215 -10 -137 0 -215 4 -215 10 0 6 78 10 215 10 137
0 215 -4 215 -10z m-322 -27 c-21 -2 -55 -2 -75 0 -21 2 -4 4 37 4 41 0 58 -2
38 -4z m139 0 c-20 -2 -52 -2 -70 0 -17 2 0 4 38 4 39 0 53 -2 32 -4z m151 0
c-21 -2 -55 -2 -75 0 -21 2 -4 4 37 4 41 0 58 -2 38 -4z m-258 -273 l0 -260
-70 0 -70 0 0 260 0 260 70 0 70 0 0 -260z m140 0 l0 -260 -65 0 -65 0 0 260
0 260 65 0 65 0 0 -260z m150 0 l0 -260 -70 0 -70 0 0 260 0 260 70 0 70 0 0
-260z"/>
<path d="M3140 1855 l0 -295 235 0 235 0 0 295 0 295 -235 0 -235 0 0 -295z
m30 0 c0 -183 -4 -285 -10 -285 -6 0 -10 102 -10 285 0 183 4 285 10 285 6 0
10 -102 10 -285z m140 275 c0 -6 -28 -10 -65 -10 -37 0 -65 4 -65 10 0 6 28
10 65 10 37 0 65 -4 65 -10z m140 0 c0 -6 -28 -10 -65 -10 -37 0 -65 4 -65 10
0 6 28 10 65 10 37 0 65 -4 65 -10z m150 0 c0 -6 -30 -10 -70 -10 -40 0 -70 4
-70 10 0 6 30 10 70 10 40 0 70 -4 70 -10z m-290 -290 l0 -270 -65 0 -65 0 0
270 0 270 65 0 65 0 0 -270z m140 0 l0 -270 -65 0 -65 0 0 270 0 270 65 0 65
0 0 -270z m150 0 l0 -270 -70 0 -70 0 0 270 0 270 70 0 70 0 0 -270z"/>
<path d="M920 1855 l0 -235 295 0 295 0 0 235 0 235 -295 0 -295 0 0 -235z
m580 215 c0 -6 -102 -10 -285 -10 -183 0 -285 4 -285 10 0 6 102 10 285 10
183 0 285 -4 285 -10z m-550 -85 c0 -37 -4 -65 -10 -65 -6 0 -10 28 -10 65 0
37 4 65 10 65 6 0 10 -28 10 -65z m550 0 l0 -65 -270 0 -270 0 0 65 0 65 270
0 270 0 0 -65z m-550 -140 c0 -37 -4 -65 -10 -65 -6 0 -10 28 -10 65 0 37 4
65 10 65 6 0 10 -28 10 -65z m550 0 l0 -65 -270 0 -270 0 0 65 0 65 270 0 270
0 0 -65z m-550 -145 c0 -40 -4 -70 -10 -70 -6 0 -10 30 -10 70 0 40 4 70 10
70 6 0 10 -30 10 -70z m550 0 l0 -70 -270 0 -270 0 0 70 0 70 270 0 270 0 0
-70z"/>
<path d="M1640 1855 l0 -225 295 0 295 0 0 225 0 225 -295 0 -295 0 0 -225z
m30 0 c0 -137 -4 -215 -10 -215 -6 0 -10 78 -10 215 0 137 4 215 10 215 6 0
10 -78 10 -215z m17 108 c-2 -21 -4 -4 -4 37 0 41 2 58 4 38 2 -21 2 -55 0
-75z m533 37 l0 -70 -260 0 -260 0 0 70 0 70 260 0 260 0 0 -70z m-533 -177
c-2 -21 -4 -6 -4 32 0 39 2 55 4 38 2 -18 2 -50 0 -70z m533 32 l0 -65 -260 0
-260 0 0 65 0 65 260 0 260 0 0 -65z m-533 -182 c-2 -21 -4 -4 -4 37 0 41 2
58 4 38 2 -21 2 -55 0 -75z m533 37 l0 -70 -260 0 -260 0 0 70 0 70 260 0 260
0 0 -70z"/>
<path d="M3800 1855 l0 -205 295 0 295 0 0 205 0 205 -295 0 -295 0 0 -205z
m580 180 c0 -13 -38 -15 -285 -15 -247 0 -285 2 -285 15 0 13 38 15 285 15
247 0 285 -2 285 -15z m0 -200 l0 -175 -285 0 -285 0 0 175 0 175 285 0 285 0
0 -175z"/>
<path d="M3980 1935 l0 -45 55 0 c52 0 55 -1 55 -25 0 -24 -2 -25 -74 -25 -70
0 -75 -1 -78 -22 -3 -20 -10 -23 -50 -26 l-48 -3 0 -45 0 -44 110 0 110 0 0
44 0 45 -52 3 c-41 2 -54 7 -56 21 -3 16 9 17 143 17 134 0 146 -1 143 -17 -2
-14 -15 -19 -56 -21 l-52 -3 0 -45 0 -44 110 0 110 0 0 45 0 45 -50 0 c-47 0
-50 2 -50 25 0 24 -2 25 -75 25 -73 0 -75 1 -75 25 0 23 3 25 50 25 l50 0 0
45 0 45 -110 0 -110 0 0 -45z m210 0 l0 -35 -100 0 -100 0 0 35 0 35 100 0
100 0 0 -35z m-140 -190 l0 -35 -100 0 -100 0 0 35 0 35 100 0 100 0 0 -35z
m290 0 l0 -35 -100 0 -100 0 0 35 0 35 100 0 100 0 0 -35z"/>
<path d="M262 1878 c-2 -46 -1 -48 26 -47 22 1 23 2 5 6 -18 3 -23 13 -26 46
l-4 42 -1 -47z"/>
<path d="M483 1875 c0 -27 2 -38 4 -22 2 15 2 37 0 50 -2 12 -4 0 -4 -28z"/>
<path d="M408 1898 c-6 -16 3 -68 11 -68 4 0 5 18 3 40 -4 41 -8 48 -14 28z"/>
<path d="M508 1898 c-6 -16 3 -68 11 -68 4 0 5 18 3 40 -4 41 -8 48 -14 28z"/>
<path d="M322 1860 c0 -19 2 -27 5 -17 2 9 2 25 0 35 -3 9 -5 1 -5 -18z"/>
<path d="M350 1875 c0 -8 7 -15 15 -15 8 0 15 -5 15 -11 0 -6 -7 -9 -15 -5 -8
3 -15 1 -15 -4 0 -6 9 -10 20 -10 11 0 20 6 20 13 0 7 -9 20 -20 30 -17 14
-20 14 -20 2z"/>
<path d="M540 1865 c0 -28 25 -44 42 -27 8 8 5 9 -11 5 -12 -3 -21 -1 -21 6 0
6 9 11 20 11 22 0 27 15 8 26 -7 4 -8 3 -4 -4 4 -7 1 -12 -9 -12 -9 0 -13 5
-10 10 3 6 1 10 -4 10 -6 0 -11 -11 -11 -25z"/>
<path d="M601 1858 c1 -30 2 -30 8 -9 9 35 29 37 34 4 l4 -28 2 27 c0 16 8 28
19 31 9 3 -2 5 -25 6 -42 1 -43 0 -42 -31z"/>
<path d="M930 1135 l0 -295 285 0 285 0 0 295 0 295 -285 0 -285 0 0 -295z
m560 269 c0 -12 -43 -14 -275 -14 -231 0 -275 2 -275 14 0 12 44 14 275 14
232 1 275 -2 275 -14z m0 -289 l0 -265 -275 0 -275 0 0 265 0 265 275 0 275 0
0 -265z"/>
<path d="M1100 1306 c0 -43 1 -45 33 -48 l32 -3 -25 -23 c-80 -72 -80 -72
-125 -72 l-45 0 0 -45 0 -45 48 0 c43 0 52 -4 97 -47 l50 -48 -32 -3 c-32 -3
-33 -5 -33 -48 l0 -44 110 0 110 0 0 45 c0 41 -2 45 -25 45 -36 0 -31 13 24
59 42 35 56 41 95 41 l46 0 0 45 0 45 -45 0 c-45 0 -48 2 -120 68 l-30 27 28
3 c25 3 27 7 27 48 l0 44 -110 0 -110 0 0 -44z m210 -1 l0 -35 -100 0 -100 0
0 35 0 35 100 0 100 0 0 -35z m-36 -70 c10 -14 28 -31 42 -37 42 -19 30 -38
-26 -38 l-50 0 0 -45 0 -44 56 -3 56 -3 -51 -41 c-28 -23 -48 -44 -44 -48 3
-3 -15 -6 -42 -6 -27 0 -45 3 -42 6 4 4 -16 25 -44 48 l-51 41 56 3 56 3 0 44
0 45 -50 0 c-56 0 -68 19 -26 38 14 6 32 23 42 37 13 20 24 25 59 25 35 0 46
-5 59 -25z m-94 -120 l0 -35 -100 0 -100 0 0 35 0 35 100 0 100 0 0 -35z m270
0 l0 -35 -100 0 -100 0 0 35 0 35 100 0 100 0 0 -35z m-140 -190 l0 -35 -100
0 -100 0 0 35 0 35 100 0 100 0 0 -35z"/>
<path d="M2350 1140 l0 -220 305 0 305 0 0 220 0 220 -305 0 -305 0 0 -220z
m600 185 l0 -25 -295 0 -295 0 0 25 0 25 295 0 295 0 0 -25z m0 -215 l0 -180
-295 0 -295 0 0 180 0 180 295 0 295 0 0 -180z"/>
<path d="M190 1135 l0 -155 300 0 300 0 0 155 0 155 -300 0 -300 0 0 -155z
m40 0 c0 -122 -2 -145 -15 -145 -13 0 -15 23 -15 145 0 122 2 145 15 145 13 0
15 -23 15 -145z m550 0 l0 -145 -270 0 -270 0 0 145 0 145 270 0 270 0 0 -145z"/>
<path d="M560 1235 c0 -9 -9 -15 -25 -15 -22 0 -25 -4 -25 -40 0 -33 -3 -40
-20 -40 -13 0 -20 7 -20 20 0 19 -7 20 -100 20 l-100 0 0 -45 0 -45 100 0 c93
0 100 1 100 20 0 13 7 20 20 20 17 0 20 -7 20 -40 0 -36 3 -40 25 -40 18 0 25
-5 25 -20 0 -19 7 -20 100 -20 l100 0 0 45 0 45 -100 0 c-89 0 -100 -2 -100
-18 0 -11 -8 -18 -20 -19 -18 -2 -20 4 -20 72 0 68 2 74 20 72 14 -1 20 -8 20
-24 0 -22 2 -23 100 -23 l100 0 0 45 0 45 -100 0 c-82 0 -100 -3 -100 -15z
m190 -30 l0 -35 -90 0 -90 0 0 35 0 35 90 0 90 0 0 -35z m-290 -70 l0 -35 -90
0 -90 0 0 35 0 35 90 0 90 0 0 -35z m290 -80 l0 -35 -90 0 -90 0 0 35 0 35 90
0 90 0 0 -35z"/>
<path d="M4068 1253 c18 -2 45 -2 60 0 15 2 0 4 -33 4 -33 0 -45 -2 -27 -4z"/>
<path d="M3923 1236 c-73 -23 -138 -74 -119 -93 2 -3 7 5 11 16 8 26 95 68
165 80 42 6 47 9 20 9 -19 0 -54 -5 -77 -12z"/>
<path d="M4210 1239 c71 -12 157 -54 165 -80 4 -11 9 -18 12 -16 2 3 0 14 -6
25 -16 30 -109 72 -172 77 l-54 4 55 -10z"/>
<path d="M1630 1135 l0 -105 305 0 305 0 0 105 0 105 -305 0 -305 0 0 -105z
m30 0 c0 -57 -4 -95 -10 -95 -6 0 -10 38 -10 95 0 57 4 95 10 95 6 0 10 -38
10 -95z m570 0 l0 -95 -280 0 -280 0 0 95 0 95 280 0 280 0 0 -95z"/>
<path d="M1860 1177 c-17 -22 -19 -27 -6 -17 15 11 20 12 23 3 3 -9 27 -13 73
-13 55 0 69 3 72 16 2 13 7 11 26 -8 l22 -24 -25 -24 c-21 -19 -25 -21 -25 -7
0 14 -11 17 -69 17 -47 0 -71 -4 -74 -12 -3 -10 -8 -9 -23 2 -13 10 -11 5 6
-17 23 -30 29 -32 88 -32 56 -1 65 2 86 26 21 25 27 26 99 24 l77 -2 0 30 0
31 -70 0 c-49 0 -70 -4 -70 -12 0 -7 -14 2 -30 20 -28 30 -34 32 -92 31 -59 0
-65 -2 -88 -32z m150 3 c0 -18 -7 -20 -60 -20 -53 0 -60 2 -60 20 0 18 7 20
60 20 53 0 60 -2 60 -20z m190 -40 c0 -18 -7 -20 -60 -20 -53 0 -60 2 -60 20
0 18 7 20 60 20 53 0 60 -2 60 -20z m-190 -50 c0 -18 -7 -20 -60 -20 -53 0
-60 2 -60 20 0 18 7 20 60 20 53 0 60 -2 60 -20z"/>
<path d="M1680 1140 l0 -31 73 3 c75 3 74 3 68 48 0 6 -32 10 -71 10 l-70 0 0
-30z m130 0 c0 -18 -7 -20 -60 -20 -53 0 -60 2 -60 20 0 18 7 20 60 20 53 0
60 -2 60 -20z"/>
<path d="M3080 1135 l0 -95 295 0 295 0 0 95 0 95 -295 0 -295 0 0 -95z m580
75 c0 -6 -102 -10 -285 -10 -183 0 -285 4 -285 10 0 6 102 10 285 10 183 0
285 -4 285 -10z m0 -90 l0 -70 -285 0 -285 0 0 70 0 70 285 0 285 0 0 -70z"/>
<path d="M3105 1160 c-13 -21 11 -31 61 -28 36 2 49 7 49 18 0 19 -99 27 -110
10z m105 -10 c0 -5 -22 -10 -50 -10 -27 0 -50 5 -50 10 0 6 23 10 50 10 28 0
50 -4 50 -10z"/>
<path d="M3492 1144 c-32 -19 -47 -23 -55 -15 -6 6 -16 11 -21 11 -6 0 -2 -6
8 -12 19 -11 19 -11 1 -24 -10 -8 -14 -14 -9 -14 6 0 15 5 21 11 9 9 20 6 46
-10 25 -15 49 -21 88 -19 l54 1 -60 6 c-33 4 -70 13 -82 21 l-22 14 27 18 c18
12 30 14 38 7 20 -16 109 -7 109 11 0 11 -13 16 -50 18 -39 2 -59 -3 -93 -24z
m138 6 c0 -5 -22 -10 -50 -10 -27 0 -50 5 -50 10 0 6 23 10 50 10 28 0 50 -4
50 -10z"/>
<path d="M3250 1141 c14 -11 30 -21 35 -21 6 -1 -3 -8 -20 -18 -16 -9 -59 -19
-95 -23 l-65 -6 58 -1 c41 -2 69 4 99 19 29 15 43 18 51 10 6 -6 16 -11 22
-11 5 0 1 6 -9 12 -19 11 -19 11 -1 24 10 8 14 14 9 14 -6 0 -15 -5 -21 -11
-9 -9 -21 -6 -50 11 -35 20 -36 20 -13 1z"/>
<path d="M3363 1143 c9 -2 23 -2 30 0 6 3 -1 5 -18 5 -16 0 -22 -2 -12 -5z"/>
<path d="M3363 1083 c9 -2 23 -2 30 0 6 3 -1 5 -18 5 -16 0 -22 -2 -12 -5z"/>
<path d="M3950 1152 c0 -5 7 -9 15 -9 8 0 12 4 9 9 -3 4 -9 8 -15 8 -5 0 -9
-4 -9 -8z"/>
<path d="M3990 1155 c0 -8 29 -12 39 -5 9 5 4 8 -13 8 -14 0 -26 -2 -26 -3z"/>
<path d="M4076 1153 c6 -4 14 -15 17 -23 5 -11 6 -9 4 4 -1 11 -9 21 -17 23
-10 3 -11 2 -4 -4z"/>
<path d="M4165 1150 c-8 -13 3 -30 18 -30 7 0 6 4 -3 10 -13 9 -13 11 0 20 9
6 10 10 3 10 -6 0 -15 -4 -18 -10z"/>
<path d="M4205 1150 c-8 -13 3 -30 18 -30 7 0 6 4 -3 10 -13 9 -13 11 0 20 9
6 10 10 3 10 -6 0 -15 -4 -18 -10z"/>
<path d="M4257 1140 c3 -11 7 -20 9 -20 2 0 4 9 4 20 0 11 -4 20 -9 20 -5 0
-7 -9 -4 -20z"/>
<path d="M3920 1130 c-9 -6 -10 -10 -3 -10 6 0 15 5 18 10 8 12 4 12 -15 0z"/>
<path d="M3801 1123 c-2 -38 98 -91 182 -98 l52 -4 -55 10 c-71 12 -154 53
-168 81 -6 13 -11 17 -11 11z"/>
<path d="M4375 1111 c-8 -26 -94 -68 -165 -80 l-55 -10 54 4 c63 5 156 47 172
77 6 11 8 22 6 25 -3 2 -8 -5 -12 -16z"/>
<path d="M4068 1013 c18 -2 45 -2 60 0 15 2 0 4 -33 4 -33 0 -45 -2 -27 -4z"/>
<path d="M3072 613 l-2 -53 175 0 175 0 0 -45 0 -45 -125 0 -125 0 0 -150 0
-150 250 0 250 0 0 150 0 150 -120 0 -120 0 0 50 0 50 -174 0 -175 0 -4 48 -3
47 -2 -52z m588 -293 l0 -140 -240 0 -240 0 0 140 0 140 240 0 240 0 0 -140z"/>
<path d="M1640 415 l0 -235 295 0 295 0 0 235 0 235 -295 0 -295 0 0 -235z
m580 210 c0 -13 -38 -15 -285 -15 -247 0 -285 2 -285 15 0 13 38 15 285 15
247 0 285 -2 285 -15z m0 -230 l0 -205 -285 0 -285 0 0 205 0 205 285 0 285 0
0 -205z"/>
<path d="M1800 500 l0 -70 65 0 c51 0 65 -3 65 -15 0 -12 -15 -15 -75 -15 -68
0 -75 -2 -75 -20 0 -17 -7 -20 -50 -20 l-50 0 0 -70 0 -70 110 0 110 0 0 70 0
70 -55 0 c-42 0 -55 3 -55 15 0 13 23 15 145 15 122 0 145 -2 145 -15 0 -12
-13 -15 -55 -15 l-55 0 0 -70 0 -70 110 0 110 0 0 70 0 70 -50 0 c-43 0 -50 3
-50 20 0 18 -7 20 -75 20 -60 0 -75 3 -75 15 0 12 13 15 60 15 l60 0 0 70 0
70 -130 0 -130 0 0 -70z m250 0 l0 -60 -120 0 -120 0 0 60 0 60 120 0 120 0 0
-60z m-160 -210 l0 -60 -100 0 -100 0 0 60 0 60 100 0 100 0 0 -60z m290 0 l0
-60 -100 0 -100 0 0 60 0 60 100 0 100 0 0 -60z"/>
<path d="M2350 420 l0 -150 300 0 300 0 0 150 0 150 -300 0 -300 0 0 -150z
m590 0 l0 -140 -290 0 -290 0 0 140 0 140 290 0 290 0 0 -140z"/>
<path d="M2601 424 c0 -11 3 -14 6 -6 3 7 2 16 -1 19 -3 4 -6 -2 -5 -13z"/>
<path d="M2711 424 c0 -11 3 -14 6 -6 3 7 2 16 -1 19 -3 4 -6 -2 -5 -13z"/>
<path d="M4092 468 c-1 -57 -6 -98 -12 -98 -5 0 -10 18 -10 40 l0 40 -140 0
-140 0 0 -85 0 -85 140 0 140 0 0 40 c0 36 3 40 25 40 23 0 25 -4 25 -40 l0
-40 140 0 140 0 0 85 0 85 -140 0 -140 0 0 -40 c0 -22 -4 -40 -10 -40 -5 0
-11 44 -13 98 l-3 97 -2 -97z m-32 -103 l0 -75 -130 0 -130 0 0 75 0 75 130 0
130 0 0 -75z m330 0 l0 -75 -130 0 -130 0 0 75 0 75 130 0 130 0 0 -75z"/>
<path d="M1145 504 c-62 -68 -180 -171 -204 -179 -12 -4 -20 -9 -18 -12 10 -9
53 20 114 78 59 57 83 71 83 49 0 -6 11 -22 25 -35 23 -24 28 -25 170 -25 142
0 147 1 170 25 14 13 25 36 25 50 0 14 -11 37 -25 50 -23 24 -28 25 -170 25
-144 0 -146 0 -170 -26z m335 -4 c11 -11 20 -31 20 -45 0 -14 -9 -34 -20 -45
-18 -18 -33 -20 -165 -20 -132 0 -147 2 -165 20 -11 11 -20 31 -20 45 0 14 9
34 20 45 18 18 33 20 165 20 132 0 147 -2 165 -20z"/>
<path d="M1316 478 c3 -5 10 -6 15 -3 13 9 11 12 -6 12 -8 0 -12 -4 -9 -9z"/>
<path d="M1352 454 c-7 -8 -8 -14 -3 -14 10 0 25 19 20 25 -2 1 -10 -3 -17
-11z"/>
<path d="M1415 460 c3 -5 8 -10 11 -10 2 0 4 5 4 10 0 6 -5 10 -11 10 -5 0 -7
-4 -4 -10z"/>
<path d="M1228 443 c7 -3 16 -2 19 1 4 3 -2 6 -13 5 -11 0 -14 -3 -6 -6z"/>
<path d="M571 464 c0 -11 3 -14 6 -6 3 7 2 16 -1 19 -3 4 -6 -2 -5 -13z"/>
<path d="M478 413 c56 -2 148 -2 205 0 56 1 10 3 -103 3 -113 0 -159 -2 -102
-3z"/>
<path d="M329 393 c-12 -16 -12 -17 1 -7 8 6 22 14 30 17 13 5 12 6 -1 6 -9 1
-23 -7 -30 -16z"/>
<path d="M289 363 c-13 -16 -12 -17 4 -4 9 7 17 15 17 17 0 8 -8 3 -21 -13z"/>
<path d="M240 334 c-17 -9 -20 -14 -9 -14 9 0 22 7 29 15 15 18 13 18 -20 -1z"/>
</g>
</svg>
